<svg width="30" height="30" viewBox="0 0 30 30" fill="none" xmlns="http://www.w3.org/2000/svg">
<g clip-path="url(#clip0_1_2886)">
<path d="M21.2547 15.6243V25.143C21.2547 25.9343 20.981 26.8968 20.5385 27.653C20.2522 28.1418 20.0797 28.738 20.0235 29.4255C19.996 29.7705 19.6885 30.0268 19.3497 29.998C19.006 29.9705 18.7497 29.668 18.7772 29.3243C18.8485 28.4493 19.0772 27.6743 19.4585 27.023C19.8347 26.378 20.0035 25.6143 20.0035 25.1443V15.6255C20.0035 15.2805 19.7235 15.0005 19.3785 15.0005C19.0335 15.0005 18.7535 15.2805 18.7535 15.6255V19.3755C18.7535 19.7205 18.4735 20.0005 18.1285 20.0005C17.7835 20.0005 17.5035 19.7205 17.5035 19.3755V14.3755C17.5035 14.0305 17.2235 13.7505 16.8785 13.7505C16.5335 13.7505 16.2535 14.0305 16.2535 14.3755V19.3755C16.2535 19.7205 15.9735 20.0005 15.6285 20.0005C15.2835 20.0005 15.0035 19.7205 15.0035 19.3755V13.1255C15.0035 12.7805 14.7235 12.5005 14.3785 12.5005C14.0335 12.5005 13.7535 12.7805 13.7535 13.1255V19.3755C13.7535 19.7205 13.4735 20.0005 13.1285 20.0005C12.7835 20.0005 12.5035 19.7205 12.5035 19.3755V14.3755C12.5035 14.0305 12.2235 13.7505 11.8785 13.7505C11.5335 13.7505 11.2535 14.0305 11.2535 14.3755V23.7368C11.271 24.2768 10.556 24.5755 10.186 24.1793L8.74599 22.7393C8.48474 22.4743 8.01849 22.3893 7.71974 22.7393C7.45349 22.9905 7.42474 23.4793 7.68724 23.7343L11.1797 27.1343C11.7685 27.7068 12.1822 28.4318 12.3772 29.2293C12.4585 29.5655 12.2535 29.903 11.9185 29.9855C11.5922 30.0668 11.2435 29.8655 11.1622 29.5268C11.0235 28.9568 10.7272 28.4393 10.3072 28.0305L6.80849 24.6243C6.05599 23.8968 6.08099 22.5755 6.83474 21.8555C7.48099 20.9468 9.25099 21.2693 9.62849 21.8568L10.001 22.2293V14.3768C10.001 13.343 10.8422 12.5018 11.876 12.5018C12.1222 12.5018 12.3572 12.5518 12.5735 12.6393C12.7897 11.8418 13.5122 11.2518 14.376 11.2518C15.2397 11.2518 15.9622 11.843 16.1785 12.6393C16.3947 12.5518 16.6285 12.5018 16.876 12.5018C17.7397 12.5018 18.4622 13.093 18.6785 13.8893C18.8947 13.8018 19.1285 13.7518 19.376 13.7518C20.4097 13.7518 21.251 14.593 21.251 15.6268L21.2547 15.6243ZM6.93974 16.6068C7.46974 16.6255 7.77724 15.9218 7.38849 15.5468L3.30599 11.3268C2.97974 10.9893 2.56974 10.3243 2.39224 9.59802C2.19724 8.83677 1.76099 7.93052 1.03974 7.24552C0.443486 6.69677 -0.406514 7.64802 0.208486 8.17802C0.722237 8.66302 1.02724 9.33052 1.17724 9.89552C1.38599 10.7468 1.85724 11.6293 2.40724 12.1968L6.48974 16.4155C6.61224 16.543 6.77599 16.6055 6.93849 16.6055L6.93974 16.6068ZM5.65474 3.11427C6.35099 3.54677 7.14974 3.77427 7.96849 3.77427H7.97599L13.0822 3.76427C13.446 3.76802 13.7597 4.11177 13.7547 4.49927C13.7885 4.96052 13.3835 5.21677 13.0197 5.21552L10.7497 5.19177C10.2185 5.21802 9.89724 5.85927 10.296 6.25427L13.376 9.40677C13.9347 9.99427 14.8447 9.10427 14.2697 8.53302L12.2422 6.45802L13.0035 6.46552C13.691 6.62177 15.1735 5.61427 15.0035 4.51427C15.016 3.44302 14.1422 2.52802 13.0872 2.51427L7.97099 2.52427C7.38599 2.56302 6.85599 2.37427 6.37224 2.08802L4.46849 0.181772C3.90349 -0.400728 3.00349 0.500522 3.58474 1.06552C3.58474 1.06552 5.61474 3.08802 5.65474 3.11427ZM25.2922 1.06427C25.8722 0.496772 24.966 -0.399478 24.4047 0.184272L23.006 1.59927C22.4747 2.03677 21.926 2.32677 21.3747 2.46052C20.5247 2.66927 19.6435 3.13927 19.0772 3.68677L16.3285 6.29927C15.7322 6.84802 16.611 7.77302 17.1885 7.20552L19.9422 4.58927C20.281 4.26177 20.9472 3.85177 21.6722 3.67552C22.406 3.49552 23.1222 3.12177 23.846 2.52177L25.291 1.06302L25.2922 1.06427ZM29.8222 6.13427C29.5785 5.89052 29.1822 5.89052 28.9385 6.13427C28.8697 6.21052 28.1897 6.86302 28.1572 6.93927C27.7222 7.63677 27.4947 8.43927 27.496 9.26052L27.5047 14.368C27.5122 14.7368 27.121 15.048 26.771 15.0405C26.2022 15.023 26.0897 14.6868 26.0547 14.3055L26.0785 12.0355C26.1022 11.498 25.3972 11.1943 25.021 11.578L23.2747 13.2518C22.681 13.8043 23.5622 14.723 24.1397 14.1543L24.8135 13.5093L24.8047 14.2918C24.7897 15.3693 25.6185 16.3105 26.7572 16.2918C27.7985 16.328 28.7622 15.4218 28.756 14.3755L28.7472 9.25927C28.7472 8.69552 28.896 8.14427 29.1835 7.66052L29.8235 7.02052C30.0672 6.77677 30.0672 6.38052 29.8235 6.13677L29.8222 6.13427Z" fill="#FBFF00"/>
</g>
<defs>
<clipPath id="clip0_1_2886">
<rect width="30" height="30" fill="white"/>
</clipPath>
</defs>
</svg>
