<svg width="30" height="30" viewBox="0 0 30 30" fill="none" xmlns="http://www.w3.org/2000/svg">
<g clip-path="url(#clip0_1_2882)">
<path d="M23.125 6.25C24.8475 6.25 26.25 4.84875 26.25 3.125C26.25 1.40125 24.8475 0 23.125 0C21.4025 0 20 1.40125 20 3.125C20 4.84875 21.4025 6.25 23.125 6.25ZM23.125 1.25C24.1588 1.25 25 2.09125 25 3.125C25 4.15875 24.1588 5 23.125 5C22.0912 5 21.25 4.15875 21.25 3.125C21.25 2.09125 22.0912 1.25 23.125 1.25ZM29.2175 23.9425C28.625 24.6137 27.7712 25 26.875 25H26.25V29.375C26.25 29.72 25.97 30 25.625 30C25.28 30 25 29.72 25 29.375V25H22.5C22.155 25 21.875 24.72 21.875 24.375C21.875 24.03 22.155 23.75 22.5 23.75H26.875C27.4125 23.75 27.925 23.5188 28.2812 23.115C28.6375 22.7125 28.8025 22.175 28.7362 21.6425L26.67 11.635C26.325 9.9625 24.8337 8.74875 23.1262 8.74875C22.3538 8.74875 21.6163 8.98875 20.9937 9.44375C20.7138 9.65 20.325 9.585 20.12 9.30875C19.9163 9.03 19.9775 8.63875 20.2563 8.43625C21.0938 7.82375 22.0863 7.5 23.125 7.5C25.4225 7.5 27.4275 9.13375 27.8925 11.3825L29.9675 21.4387C30.0863 22.3762 29.8113 23.2712 29.2175 23.9425ZM15 12.5C16.7225 12.5 18.125 11.0988 18.125 9.375C18.125 7.65125 16.7225 6.25 15 6.25C13.2775 6.25 11.875 7.65125 11.875 9.375C11.875 11.0988 13.2775 12.5 15 12.5ZM15 7.5C16.0338 7.5 16.875 8.34125 16.875 9.375C16.875 10.4087 16.0338 11.25 15 11.25C13.9663 11.25 13.125 10.4087 13.125 9.375C13.125 8.34125 13.9663 7.5 15 7.5ZM16.25 13.75H13.75C11.6825 13.75 10 15.4325 10 17.5V21.25C10 22.88 11.045 24.2687 12.5 24.785V29.375C12.5 29.72 12.78 30 13.125 30C13.47 30 13.75 29.72 13.75 29.375V25H16.25V29.375C16.25 29.72 16.53 30 16.875 30C17.22 30 17.5 29.72 17.5 29.375V24.785C18.955 24.2687 20 22.88 20 21.25V17.5C20 15.4325 18.3175 13.75 16.25 13.75ZM18.75 21.25C18.75 22.6287 17.6287 23.75 16.25 23.75H13.75C12.3713 23.75 11.25 22.6287 11.25 21.25V17.5C11.25 16.1213 12.3713 15 13.75 15H16.25C17.6287 15 18.75 16.1213 18.75 17.5V21.25ZM5.625 6.25C7.3475 6.25 8.75 4.84875 8.75 3.125C8.75 1.40125 7.3475 0 5.625 0C3.9025 0 2.5 1.40125 2.5 3.125C2.5 4.84875 3.9025 6.25 5.625 6.25ZM5.625 1.25C6.65875 1.25 7.5 2.09125 7.5 3.125C7.5 4.15875 6.65875 5 5.625 5C4.59125 5 3.75 4.15875 3.75 3.125C3.75 2.09125 4.59125 1.25 5.625 1.25ZM9.29125 8.93875C9.1175 9.23625 8.735 9.34 8.4375 9.1675C7.96375 8.89375 7.42375 8.75 6.875 8.75H4.375C2.6525 8.75 1.25 10.1512 1.25 11.875V16.875C1.25 18.5987 2.6525 20 4.375 20H6.875C7.22 20 7.5 20.28 7.5 20.625C7.5 20.97 7.22 21.25 6.875 21.25H4.375C4.1625 21.25 3.95375 21.235 3.75 21.205V29.375C3.75 29.72 3.47 30 3.125 30C2.78 30 2.5 29.72 2.5 29.375V20.8275C1.02375 20.1238 0 18.6162 0 16.875V11.875C0 9.4625 1.9625 7.5 4.375 7.5H6.875C7.6425 7.5 8.39875 7.7025 9.0625 8.08625C9.36125 8.25875 9.46375 8.63875 9.29125 8.93875Z" fill="#FBFF00"/>
</g>
<defs>
<clipPath id="clip0_1_2882">
<rect width="30" height="30" fill="white"/>
</clipPath>
</defs>
</svg>
