<svg width="30" height="30" viewBox="0 0 30 30" fill="none" xmlns="http://www.w3.org/2000/svg">
<g clip-path="url(#clip0_1_2878)">
<path d="M10.8563 22.4998H4.375C1.5125 22.4998 0 20.9873 0 18.1248V11.6398C0 5.74606 4.77875 0.428558 10.435 0.0273084C13.6862 -0.198942 16.8862 0.988558 19.1937 3.29606C21.5087 5.61106 22.7025 8.81606 22.4712 12.0911C22.0737 17.7336 16.7537 22.4998 10.8563 22.4998ZM11.2312 1.24981C10.9962 1.24981 10.76 1.25856 10.5237 1.27606C5.49625 1.63106 1.25 6.37731 1.25 11.6398V18.1248C1.25 20.2861 2.21375 21.2498 4.375 21.2498H10.8563C16.1225 21.2498 20.8713 17.0161 21.225 12.0048C21.4312 9.09106 20.3675 6.23981 18.3088 4.18106C16.4263 2.29731 13.88 1.24981 11.2312 1.24981ZM30.0012 26.2511V20.3436C30.0012 16.9711 28.2213 13.6511 25.355 11.6811C25.0713 11.4861 24.6825 11.5586 24.4863 11.8423C24.2913 12.1273 24.3625 12.5161 24.6475 12.7111C27.1788 14.4523 28.7512 17.3748 28.7512 20.3423V26.2498C28.7512 28.3148 27.3925 28.7486 26.2512 28.7486H20.3487C17.3812 28.7486 14.4563 27.1761 12.715 24.6448C12.5188 24.3586 12.13 24.2886 11.8463 24.4836C11.5625 24.6786 11.49 25.0686 11.685 25.3523C13.6575 28.2186 16.9763 29.9986 20.35 29.9986H26.2525C28.5663 29.9986 30.0025 28.5623 30.0025 26.2498L30.0012 26.2511Z" fill="#FBFF00"/>
</g>
<defs>
<clipPath id="clip0_1_2878">
<rect width="30" height="30" fill="white"/>
</clipPath>
</defs>
</svg>
