<svg width="30" height="30" viewBox="0 0 30 30" fill="none" xmlns="http://www.w3.org/2000/svg">
<path d="M15 15C19.1362 15 22.5 11.6362 22.5 7.5C22.5 7.07375 22.4562 6.6575 22.3875 6.25H25.625V5H22.0625C21.03 2.09125 18.2587 0 15 0C10.8637 0 7.5 3.36375 7.5 7.5C7.5 11.6362 10.8637 15 15 15ZM15 1.25C17.5562 1.25 19.7525 2.79625 20.72 5H9.28C10.2475 2.79625 12.4438 1.25 15 1.25ZM8.87625 6.25H21.1238C21.2063 6.65375 21.25 7.0725 21.25 7.5C21.25 10.9462 18.4462 13.75 15 13.75C11.5538 13.75 8.75 10.9462 8.75 7.5C8.75 7.0725 8.79375 6.65375 8.87625 6.25ZM20.625 17.5H9.375C6.27375 17.5 3.75 20.0238 3.75 23.125V30H5V23.125C5 21.2075 6.24875 19.5912 7.96875 19.0025L11.7775 24.5563L14.9513 20.7488L18.1187 24.5487L22.0225 19C23.7475 19.5875 25 21.205 25 23.125V30H26.25V23.125C26.25 20.0238 23.7262 17.5 20.625 17.5ZM18.035 22.495L14.9525 18.795L11.8763 22.4875L9.31625 18.7563C9.33625 18.7563 20.6537 18.755 20.6688 18.755L18.035 22.495Z" fill="#FBFF00"/>
</svg>
