<svg width="30" height="30" viewBox="0 0 30 30" fill="none" xmlns="http://www.w3.org/2000/svg">
<g clip-path="url(#clip0_1_2874)">
<path d="M24.375 3.75H5.625C2.52375 3.75 0 6.27375 0 9.375V25.625C0 25.8762 0.15 26.1038 0.3825 26.2013C0.46 26.2338 0.54375 26.25 0.625 26.25C0.785 26.25 0.9425 26.1888 1.0625 26.0713L5.23875 21.9937L8.96875 25.7238C9.3225 26.0775 9.79375 26.2725 10.295 26.2725H10.3C10.8025 26.2725 11.2737 26.0737 11.6275 25.7175L15.0312 22.2825L18.4725 25.7275C18.8387 26.0938 19.3187 26.275 19.7987 26.275C20.2787 26.275 20.76 26.0925 21.1262 25.7275L24.8 22.0537L28.885 26.0475L29.0287 26.1438C29.22 26.2738 29.47 26.2838 29.6712 26.1763C29.875 26.0675 30.0025 25.855 30.0025 25.625V9.375C30.0025 6.27375 27.4787 3.75 24.3775 3.75H24.375ZM24.375 5C26.0087 5 27.435 5.9 28.1862 7.23L24.4812 10.9687L20.5525 7.04L22.6425 5H24.375ZM23.6012 11.8575L19.9337 15.5575L15.885 11.5963L19.6562 7.91375L23.6 11.8575H23.6012ZM20.8525 5L19.6675 6.1575L18.51 5H20.8525ZM16.7425 5L18.7725 7.03L14.9912 10.7225L11.2687 7.08125L13.35 5.00125L16.7425 5ZM14.0987 11.5925L10.0575 15.5387L6.43625 11.9137L10.3862 7.96375L14.0987 11.5925ZM11.5825 5L10.3762 6.20625L9.14375 5H11.5837H11.5825ZM5.62375 5H7.35625L9.49375 7.09L5.55375 11.03L1.79375 7.26625C2.54 5.9175 3.9775 5.00125 5.625 5.00125L5.62375 5ZM1.24875 9.375C1.24875 9.09875 1.275 8.8275 1.32375 8.565L4.66875 11.9137L1.24875 15.3337V9.375ZM1.24875 24.14V18.0062L4.3525 21.11L1.24875 24.14ZM1.68 16.6687L5.5525 12.7963L9.16375 16.4112L5.24625 20.2362L1.67875 16.67L1.68 16.6687ZM10.7362 24.8375C10.6187 24.9563 10.4625 25.0212 10.295 25.0212C10.1362 25.0088 9.97 24.9575 9.85125 24.8388L6.13125 21.12L10.0475 17.2962L14.145 21.3975L10.7362 24.8375ZM15.025 20.5087L10.9425 16.4213L14.9937 12.465L19.0575 16.4388L15.025 20.5087ZM20.2387 24.8412C19.9962 25.0837 19.5987 25.0862 19.3537 24.8412L15.9087 21.3925L19.9512 17.3125L23.9025 21.1763L20.2387 24.8412ZM24.7812 20.2987L20.8262 16.43L24.4837 12.7388L28.4125 16.6675L24.7812 20.2987ZM28.7487 24.18L25.675 21.1725L28.7487 18.0988V24.18ZM28.7487 15.235L25.3637 11.8512L28.665 8.52C28.72 8.79625 28.7487 9.08 28.7487 9.37125V15.235Z" fill="#FBFF00"/>
</g>
<defs>
<clipPath id="clip0_1_2874">
<rect width="30" height="30" fill="white"/>
</clipPath>
</defs>
</svg>
