<svg width="30" height="30" viewBox="0 0 30 30" fill="none" xmlns="http://www.w3.org/2000/svg">
<g clip-path="url(#clip0_1_2903)">
<path d="M17.5 15C17.5 17.7575 19.7425 20 22.5 20C25.2575 20 27.5 17.7575 27.5 15C27.5 12.2425 25.2575 10 22.5 10C19.7425 10 17.5 12.2425 17.5 15ZM22.5 11.25C24.5675 11.25 26.25 12.9325 26.25 15C26.25 17.0675 24.5675 18.75 22.5 18.75C20.4325 18.75 18.75 17.0675 18.75 15C18.75 12.9325 20.4325 11.25 22.5 11.25ZM15 10C17.7575 10 20 7.7575 20 5C20 2.2425 17.7575 0 15 0C12.2425 0 10 2.2425 10 5C10 7.7575 12.2425 10 15 10ZM15 1.25C17.0675 1.25 18.75 2.9325 18.75 5C18.75 7.0675 17.0675 8.75 15 8.75C12.9325 8.75 11.25 7.0675 11.25 5C11.25 2.9325 12.9325 1.25 15 1.25ZM7.5 20C10.2575 20 12.5 17.7575 12.5 15C12.5 12.2425 10.2575 10 7.5 10C4.7425 10 2.5 12.2425 2.5 15C2.5 17.7575 4.7425 20 7.5 20ZM7.5 11.25C9.5675 11.25 11.25 12.9325 11.25 15C11.25 17.0675 9.5675 18.75 7.5 18.75C5.4325 18.75 3.75 17.0675 3.75 15C3.75 12.9325 5.4325 11.25 7.5 11.25ZM30 25.625V30H28.75V25.625C28.75 23.9025 27.3487 22.5 25.625 22.5H25.4888L22.1875 26.625L18.8875 22.5H18.75C17.0275 22.5 15.625 23.9025 15.625 25.625V30H14.375V25.625C14.375 23.9025 12.9725 22.5 11.25 22.5H11.1137L7.8125 26.625L4.5125 22.5H4.375C2.6525 22.5 1.25 23.9025 1.25 25.625V30H0V25.625C0 23.2125 1.9625 21.25 4.375 21.25H5.1125L7.8125 24.625L10.5125 21.25H11.25C12.85 21.25 14.2375 22.1225 15 23.4075C15.7625 22.1225 17.15 21.25 18.75 21.25H19.4875L22.1875 24.625L24.8875 21.25H25.625C28.0375 21.25 30 23.2125 30 25.625Z" fill="#E1E1E1"/>
</g>
<defs>
<clipPath id="clip0_1_2903">
<rect width="30" height="30" fill="white"/>
</clipPath>
</defs>
</svg>
