<svg width="146" height="145" viewBox="0 0 146 145" fill="none" xmlns="http://www.w3.org/2000/svg">
<g clip-path="url(#clip0_1_2779)">
<path d="M139.422 83.4484C139.909 83.4484 140.303 83.054 140.303 82.5677C140.303 82.0814 139.909 81.687 139.422 81.687C138.936 81.687 138.542 82.0814 138.542 82.5677C138.542 83.054 138.936 83.4484 139.422 83.4484Z" fill="#FBFF00" fill-opacity="0.3"/>
<path d="M139.422 89.1266C139.909 89.1266 140.303 88.7322 140.303 88.2459C140.303 87.7596 139.909 87.3652 139.422 87.3652C138.936 87.3652 138.542 87.7596 138.542 88.2459C138.542 88.7322 138.936 89.1266 139.422 89.1266Z" fill="#FBFF00" fill-opacity="0.3"/>
<path d="M133.744 77.7701C134.231 77.7701 134.625 77.3758 134.625 76.8895C134.625 76.4031 134.231 76.0088 133.744 76.0088C133.258 76.0088 132.864 76.4031 132.864 76.8895C132.864 77.3758 133.258 77.7701 133.744 77.7701Z" fill="#FBFF00" fill-opacity="0.3"/>
<path d="M136.69 80.5023C137.177 80.5023 137.571 80.108 137.571 79.6217C137.571 79.1353 137.177 78.741 136.69 78.741C136.204 78.741 135.81 79.1353 135.81 79.6217C135.81 80.1083 136.204 80.5023 136.69 80.5023Z" fill="#FBFF00" fill-opacity="0.3"/>
<path d="M133.744 83.4484C134.231 83.4484 134.625 83.054 134.625 82.5677C134.625 82.0814 134.231 81.687 133.744 81.687C133.258 81.687 132.864 82.0814 132.864 82.5677C132.864 83.054 133.258 83.4484 133.744 83.4484Z" fill="#FBFF00" fill-opacity="0.3"/>
<path d="M136.69 86.1803C137.177 86.1803 137.571 85.786 137.571 85.2996C137.571 84.8133 137.177 84.4189 136.69 84.4189C136.204 84.4189 135.81 84.8133 135.81 85.2996C135.81 85.7862 136.204 86.1803 136.69 86.1803Z" fill="#FBFF00" fill-opacity="0.3"/>
<path d="M133.744 89.1266C134.231 89.1266 134.625 88.7322 134.625 88.2459C134.625 87.7596 134.231 87.3652 133.744 87.3652C133.258 87.3652 132.864 87.7596 132.864 88.2459C132.864 88.7322 133.258 89.1266 133.744 89.1266Z" fill="#FBFF00" fill-opacity="0.3"/>
<path d="M136.69 91.8585C137.177 91.8585 137.571 91.4642 137.571 90.9779C137.571 90.4915 137.177 90.0972 136.69 90.0972C136.204 90.0972 135.81 90.4915 135.81 90.9779C135.81 91.4645 136.204 91.8585 136.69 91.8585Z" fill="#FBFF00" fill-opacity="0.3"/>
<path d="M133.744 94.8046C134.231 94.8046 134.625 94.4102 134.625 93.9239C134.625 93.4376 134.231 93.0432 133.744 93.0432C133.258 93.0432 132.864 93.4376 132.864 93.9239C132.864 94.4102 133.258 94.8046 133.744 94.8046Z" fill="#FBFF00" fill-opacity="0.3"/>
<path d="M136.69 97.5368C137.177 97.5368 137.571 97.1424 137.571 96.6561C137.571 96.1697 137.177 95.7754 136.69 95.7754C136.204 95.7754 135.81 96.1697 135.81 96.6561C135.81 97.1427 136.204 97.5368 136.69 97.5368Z" fill="#FBFF00" fill-opacity="0.3"/>
<path d="M133.744 100.483C134.231 100.483 134.625 100.088 134.625 99.6021C134.625 99.1158 134.231 98.7214 133.744 98.7214C133.258 98.7214 132.864 99.1158 132.864 99.6021C132.864 100.088 133.258 100.483 133.744 100.483Z" fill="#FBFF00" fill-opacity="0.3"/>
<path d="M133.744 106.161C134.231 106.161 134.625 105.766 134.625 105.28C134.625 104.794 134.231 104.399 133.744 104.399C133.258 104.399 132.864 104.794 132.864 105.28C132.864 105.766 133.258 106.161 133.744 106.161Z" fill="#FBFF00" fill-opacity="0.3"/>
<path d="M131.893 73.9434C131.893 73.5318 131.609 73.1885 131.227 73.0923C131.102 73.6658 130.97 74.237 130.832 74.8057C130.89 74.8176 130.95 74.8244 131.012 74.8244C131.499 74.8241 131.893 74.4301 131.893 73.9434Z" fill="#FBFF00" fill-opacity="0.3"/>
<path d="M131.012 80.5023C131.499 80.5023 131.893 80.108 131.893 79.6217C131.893 79.1353 131.499 78.741 131.012 78.741C130.526 78.741 130.132 79.1353 130.132 79.6217C130.132 80.1083 130.526 80.5023 131.012 80.5023Z" fill="#FBFF00" fill-opacity="0.3"/>
<path d="M128.947 82.5677C128.947 82.3309 128.853 82.1174 128.701 81.959C128.526 82.4547 128.345 82.9481 128.16 83.4387C128.602 83.3916 128.947 83.0219 128.947 82.5677Z" fill="#FBFF00" fill-opacity="0.3"/>
<path d="M131.012 86.1803C131.499 86.1803 131.893 85.786 131.893 85.2996C131.893 84.8133 131.499 84.4189 131.012 84.4189C130.526 84.4189 130.132 84.8133 130.132 85.2996C130.132 85.7862 130.526 86.1803 131.012 86.1803Z" fill="#FBFF00" fill-opacity="0.3"/>
<path d="M128.066 89.1266C128.552 89.1266 128.947 88.7322 128.947 88.2459C128.947 87.7596 128.552 87.3652 128.066 87.3652C127.58 87.3652 127.185 87.7596 127.185 88.2459C127.185 88.7322 127.58 89.1266 128.066 89.1266Z" fill="#FBFF00" fill-opacity="0.3"/>
<path d="M131.012 91.8585C131.499 91.8585 131.893 91.4642 131.893 90.9779C131.893 90.4915 131.499 90.0972 131.012 90.0972C130.526 90.0972 130.132 90.4915 130.132 90.9779C130.132 91.4645 130.526 91.8585 131.012 91.8585Z" fill="#FBFF00" fill-opacity="0.3"/>
<path d="M128.066 94.8046C128.552 94.8046 128.947 94.4102 128.947 93.9239C128.947 93.4376 128.552 93.0432 128.066 93.0432C127.58 93.0432 127.185 93.4376 127.185 93.9239C127.185 94.4102 127.58 94.8046 128.066 94.8046Z" fill="#FBFF00" fill-opacity="0.3"/>
<path d="M131.012 97.5368C131.499 97.5368 131.893 97.1424 131.893 96.6561C131.893 96.1697 131.499 95.7754 131.012 95.7754C130.526 95.7754 130.132 96.1697 130.132 96.6561C130.132 97.1427 130.526 97.5368 131.012 97.5368Z" fill="#FBFF00" fill-opacity="0.3"/>
<path d="M128.066 100.483C128.552 100.483 128.947 100.088 128.947 99.6021C128.947 99.1158 128.552 98.7214 128.066 98.7214C127.58 98.7214 127.185 99.1158 127.185 99.6021C127.185 100.088 127.58 100.483 128.066 100.483Z" fill="#FBFF00" fill-opacity="0.3"/>
<path d="M131.012 103.215C131.499 103.215 131.893 102.82 131.893 102.334C131.893 101.848 131.499 101.453 131.012 101.453C130.526 101.453 130.132 101.848 130.132 102.334C130.132 102.821 130.526 103.215 131.012 103.215Z" fill="#FBFF00" fill-opacity="0.3"/>
<path d="M128.066 106.161C128.552 106.161 128.947 105.766 128.947 105.28C128.947 104.794 128.552 104.399 128.066 104.399C127.58 104.399 127.185 104.794 127.185 105.28C127.185 105.766 127.58 106.161 128.066 106.161Z" fill="#FBFF00" fill-opacity="0.3"/>
<path d="M131.012 108.893C131.499 108.893 131.893 108.499 131.893 108.012C131.893 107.526 131.499 107.132 131.012 107.132C130.526 107.132 130.132 107.526 130.132 108.012C130.132 108.499 130.526 108.893 131.012 108.893Z" fill="#FBFF00" fill-opacity="0.3"/>
<path d="M128.066 111.839C128.552 111.839 128.947 111.445 128.947 110.958C128.947 110.472 128.552 110.078 128.066 110.078C127.58 110.078 127.185 110.472 127.185 110.958C127.185 111.445 127.58 111.839 128.066 111.839Z" fill="#FBFF00" fill-opacity="0.3"/>
<path d="M125.334 90.0972C125.309 90.0972 125.284 90.1026 125.259 90.1048C125.039 90.5506 124.813 90.9938 124.584 91.4344C124.739 91.6879 125.015 91.8588 125.334 91.8588C125.82 91.8588 126.214 91.4645 126.214 90.9781C126.215 90.4915 125.82 90.0972 125.334 90.0972Z" fill="#FBFF00" fill-opacity="0.3"/>
<path d="M122.777 94.7103C123.067 94.5663 123.269 94.2699 123.269 93.9238C123.269 93.9037 123.264 93.8847 123.263 93.8645C123.102 94.1473 122.941 94.4298 122.777 94.7103Z" fill="#FBFF00" fill-opacity="0.3"/>
<path d="M125.334 95.7754C124.848 95.7754 124.453 96.1697 124.453 96.6561C124.453 97.1427 124.848 97.5368 125.334 97.5368C125.82 97.5368 126.215 97.1424 126.215 96.6561C126.215 96.1697 125.82 95.7754 125.334 95.7754Z" fill="#FBFF00" fill-opacity="0.3"/>
<path d="M122.388 98.7212C121.902 98.7212 121.507 99.1155 121.507 99.6019C121.507 100.088 121.902 100.483 122.388 100.483C122.874 100.483 123.269 100.088 123.269 99.6019C123.269 99.1155 122.875 98.7212 122.388 98.7212Z" fill="#FBFF00" fill-opacity="0.3"/>
<path d="M125.334 101.453C124.848 101.453 124.453 101.848 124.453 102.334C124.453 102.821 124.848 103.215 125.334 103.215C125.82 103.215 126.215 102.82 126.215 102.334C126.215 101.848 125.82 101.453 125.334 101.453Z" fill="#FBFF00" fill-opacity="0.3"/>
<path d="M122.388 104.399C121.902 104.399 121.507 104.794 121.507 105.28C121.507 105.766 121.902 106.161 122.388 106.161C122.874 106.161 123.269 105.766 123.269 105.28C123.269 104.794 122.875 104.399 122.388 104.399Z" fill="#FBFF00" fill-opacity="0.3"/>
<path d="M125.334 107.132C124.848 107.132 124.453 107.526 124.453 108.012C124.453 108.499 124.848 108.893 125.334 108.893C125.82 108.893 126.215 108.499 126.215 108.012C126.215 107.526 125.82 107.132 125.334 107.132Z" fill="#FBFF00" fill-opacity="0.3"/>
<path d="M122.388 110.077C121.902 110.077 121.507 110.472 121.507 110.958C121.507 111.444 121.902 111.839 122.388 111.839C122.874 111.839 123.269 111.444 123.269 110.958C123.269 110.472 122.875 110.077 122.388 110.077Z" fill="#FBFF00" fill-opacity="0.3"/>
<path d="M125.334 112.81C124.848 112.81 124.453 113.204 124.453 113.69C124.453 114.177 124.848 114.571 125.334 114.571C125.82 114.571 126.215 114.177 126.215 113.69C126.215 113.204 125.82 112.81 125.334 112.81Z" fill="#FBFF00" fill-opacity="0.3"/>
<path d="M122.388 115.756C121.902 115.756 121.507 116.15 121.507 116.636C121.507 117.123 121.902 117.517 122.388 117.517C122.874 117.517 123.269 117.123 123.269 116.636C123.269 116.15 122.875 115.756 122.388 115.756Z" fill="#FBFF00" fill-opacity="0.3"/>
<path d="M119.656 101.453C119.17 101.453 118.775 101.848 118.775 102.334C118.775 102.821 119.17 103.215 119.656 103.215C120.142 103.215 120.537 102.82 120.537 102.334C120.537 101.848 120.142 101.453 119.656 101.453Z" fill="#FBFF00" fill-opacity="0.3"/>
<path d="M116.71 104.399C116.224 104.399 115.829 104.794 115.829 105.28C115.829 105.766 116.224 106.161 116.71 106.161C117.196 106.161 117.591 105.766 117.591 105.28C117.591 104.794 117.196 104.399 116.71 104.399Z" fill="#FBFF00" fill-opacity="0.3"/>
<path d="M119.656 107.132C119.17 107.132 118.775 107.526 118.775 108.012C118.775 108.499 119.17 108.893 119.656 108.893C120.142 108.893 120.537 108.499 120.537 108.012C120.537 107.526 120.142 107.132 119.656 107.132Z" fill="#FBFF00" fill-opacity="0.3"/>
<path d="M116.71 110.077C116.224 110.077 115.829 110.472 115.829 110.958C115.829 111.444 116.224 111.839 116.71 111.839C117.196 111.839 117.591 111.444 117.591 110.958C117.591 110.472 117.196 110.077 116.71 110.077Z" fill="#FBFF00" fill-opacity="0.3"/>
<path d="M119.656 112.81C119.17 112.81 118.775 113.204 118.775 113.69C118.775 114.177 119.17 114.571 119.656 114.571C120.142 114.571 120.537 114.177 120.537 113.69C120.537 113.204 120.142 112.81 119.656 112.81Z" fill="#FBFF00" fill-opacity="0.3"/>
<path d="M116.71 115.756C116.224 115.756 115.829 116.15 115.829 116.636C115.829 117.123 116.224 117.517 116.71 117.517C117.196 117.517 117.591 117.123 117.591 116.636C117.591 116.15 117.196 115.756 116.71 115.756Z" fill="#FBFF00" fill-opacity="0.3"/>
<path d="M113.978 107.132C113.821 107.132 113.676 107.176 113.549 107.248C113.422 107.387 113.297 107.527 113.169 107.664C113.123 107.771 113.097 107.888 113.097 108.012C113.097 108.499 113.492 108.893 113.978 108.893C114.464 108.893 114.859 108.499 114.859 108.012C114.859 107.526 114.464 107.132 113.978 107.132Z" fill="#FBFF00" fill-opacity="0.3"/>
<path d="M111.032 110.077C110.953 110.077 110.877 110.091 110.804 110.111C110.602 110.31 110.397 110.506 110.193 110.703C110.168 110.784 110.151 110.869 110.151 110.958C110.151 111.444 110.545 111.839 111.032 111.839C111.518 111.839 111.912 111.444 111.912 110.958C111.913 110.472 111.518 110.077 111.032 110.077Z" fill="#FBFF00" fill-opacity="0.3"/>
<path d="M113.978 112.81C113.492 112.81 113.097 113.204 113.097 113.69C113.097 114.177 113.492 114.571 113.978 114.571C114.464 114.571 114.859 114.177 114.859 113.69C114.859 113.204 114.464 112.81 113.978 112.81Z" fill="#FBFF00" fill-opacity="0.3"/>
<path d="M111.032 115.756C110.545 115.756 110.151 116.15 110.151 116.636C110.151 117.123 110.545 117.517 111.032 117.517C111.518 117.517 111.912 117.123 111.912 116.636C111.913 116.15 111.518 115.756 111.032 115.756Z" fill="#FBFF00" fill-opacity="0.3"/>
<path d="M108.3 112.81C107.813 112.81 107.419 113.204 107.419 113.69C107.419 114.177 107.813 114.571 108.3 114.571C108.786 114.571 109.18 114.177 109.18 113.69C109.18 113.204 108.786 112.81 108.3 112.81Z" fill="#FBFF00" fill-opacity="0.3"/>
<path d="M105.354 115.756C104.867 115.756 104.473 116.15 104.473 116.636C104.473 117.123 104.867 117.517 105.354 117.517C105.84 117.517 106.234 117.123 106.234 116.636C106.235 116.15 105.84 115.756 105.354 115.756Z" fill="#FBFF00" fill-opacity="0.3"/>
<path d="M94.8783 122.315C94.8783 122.247 94.8689 122.182 94.8547 122.118C94.3627 122.394 93.8673 122.665 93.3688 122.93C93.5286 123.093 93.7509 123.195 93.9979 123.195C94.484 123.195 94.8783 122.801 94.8783 122.315Z" fill="#FBFF00" fill-opacity="0.3"/>
<path d="M96.9434 125.927C97.4298 125.927 97.8241 125.533 97.8241 125.047C97.8241 124.56 97.4298 124.166 96.9434 124.166C96.4571 124.166 96.0627 124.56 96.0627 125.047C96.0627 125.533 96.4571 125.927 96.9434 125.927Z" fill="#FBFF00" fill-opacity="0.3"/>
<path d="M93.9973 128.873C94.4837 128.873 94.878 128.479 94.878 127.993C94.878 127.506 94.4837 127.112 93.9973 127.112C93.511 127.112 93.1166 127.506 93.1166 127.993C93.1166 128.479 93.511 128.873 93.9973 128.873Z" fill="#FBFF00" fill-opacity="0.3"/>
<path d="M93.9973 134.552C94.4837 134.552 94.878 134.157 94.878 133.671C94.878 133.185 94.4837 132.79 93.9973 132.79C93.511 132.79 93.1166 133.185 93.1166 133.671C93.1166 134.157 93.511 134.552 93.9973 134.552Z" fill="#FBFF00" fill-opacity="0.3"/>
<path d="M90.3846 125.047C90.3846 125.533 90.7789 125.927 91.2653 125.927C91.7516 125.927 92.1459 125.533 92.1459 125.047C92.1459 124.56 91.7516 124.166 91.2653 124.166C90.7789 124.166 90.3846 124.56 90.3846 125.047Z" fill="#FBFF00" fill-opacity="0.3"/>
<path d="M88.3192 127.112C87.8328 127.112 87.4385 127.506 87.4385 127.992C87.4385 128.479 87.8328 128.873 88.3192 128.873C88.8055 128.873 89.1998 128.479 89.1998 127.992C89.2001 127.506 88.8058 127.112 88.3192 127.112Z" fill="#FBFF00" fill-opacity="0.3"/>
<path d="M91.2653 129.844C90.7789 129.844 90.3846 130.238 90.3846 130.725C90.3846 131.211 90.7789 131.605 91.2653 131.605C91.7516 131.605 92.1459 131.211 92.1459 130.725C92.1459 130.238 91.7516 129.844 91.2653 129.844Z" fill="#FBFF00" fill-opacity="0.3"/>
<path d="M88.3192 132.79C87.8328 132.79 87.4385 133.184 87.4385 133.67C87.4385 134.157 87.8328 134.551 88.3192 134.551C88.8055 134.551 89.1998 134.157 89.1998 133.67C89.2001 133.184 88.8058 132.79 88.3192 132.79Z" fill="#FBFF00" fill-opacity="0.3"/>
<path d="M91.2653 135.522C90.7789 135.522 90.3846 135.917 90.3846 136.403C90.3846 136.89 90.7789 137.284 91.2653 137.284C91.7516 137.284 92.1459 136.889 92.1459 136.403C92.1459 135.917 91.7516 135.522 91.2653 135.522Z" fill="#FBFF00" fill-opacity="0.3"/>
<path d="M88.3192 138.468C87.8328 138.468 87.4385 138.862 87.4385 139.349C87.4385 139.835 87.8328 140.229 88.3192 140.229C88.8055 140.229 89.1998 139.835 89.1998 139.349C89.2001 138.862 88.8058 138.468 88.3192 138.468Z" fill="#FBFF00" fill-opacity="0.3"/>
<path d="M81.7714 127.883C81.7669 127.919 81.7604 127.955 81.7604 127.993C81.7604 128.479 82.1547 128.873 82.6411 128.873C83.1274 128.873 83.5217 128.479 83.5217 127.993C83.5217 127.751 83.4238 127.531 83.2657 127.372C82.7699 127.547 82.272 127.718 81.7714 127.883Z" fill="#FBFF00" fill-opacity="0.3"/>
<path d="M85.5872 129.844C85.1008 129.844 84.7065 130.238 84.7065 130.725C84.7065 131.211 85.1008 131.605 85.5872 131.605C86.0735 131.605 86.4678 131.211 86.4678 130.725C86.4678 130.238 86.0735 129.844 85.5872 129.844Z" fill="#FBFF00" fill-opacity="0.3"/>
<path d="M82.6411 132.79C82.1547 132.79 81.7604 133.184 81.7604 133.67C81.7604 134.157 82.1547 134.551 82.6411 134.551C83.1274 134.551 83.5217 134.157 83.5217 133.67C83.522 133.184 83.1277 132.79 82.6411 132.79Z" fill="#FBFF00" fill-opacity="0.3"/>
<path d="M85.5872 135.522C85.1008 135.522 84.7065 135.917 84.7065 136.403C84.7065 136.89 85.1008 137.284 85.5872 137.284C86.0735 137.284 86.4678 136.889 86.4678 136.403C86.4678 135.917 86.0735 135.522 85.5872 135.522Z" fill="#FBFF00" fill-opacity="0.3"/>
<path d="M82.6411 138.468C82.1547 138.468 81.7604 138.862 81.7604 139.349C81.7604 139.835 82.1547 140.229 82.6411 140.229C83.1274 140.229 83.5217 139.835 83.5217 139.349C83.522 138.862 83.1277 138.468 82.6411 138.468Z" fill="#FBFF00" fill-opacity="0.3"/>
<path d="M79.909 129.844C79.4227 129.844 79.0283 130.238 79.0283 130.725C79.0283 131.211 79.4227 131.605 79.909 131.605C80.3953 131.605 80.7897 131.211 80.7897 130.725C80.7897 130.238 80.3953 129.844 79.909 129.844Z" fill="#FBFF00" fill-opacity="0.3"/>
<path d="M76.9629 132.79C76.4766 132.79 76.0822 133.184 76.0822 133.67C76.0822 134.157 76.4766 134.551 76.9629 134.551C77.4492 134.551 77.8436 134.157 77.8436 133.67C77.8439 133.184 77.4495 132.79 76.9629 132.79Z" fill="#FBFF00" fill-opacity="0.3"/>
<path d="M79.909 135.522C79.4227 135.522 79.0283 135.917 79.0283 136.403C79.0283 136.89 79.4227 137.284 79.909 137.284C80.3953 137.284 80.7897 136.889 80.7897 136.403C80.7897 135.917 80.3953 135.522 79.909 135.522Z" fill="#FBFF00" fill-opacity="0.3"/>
<path d="M76.9629 138.468C76.4766 138.468 76.0822 138.862 76.0822 139.349C76.0822 139.835 76.4766 140.229 76.9629 140.229C77.4492 140.229 77.8436 139.835 77.8436 139.349C77.8439 138.862 77.4495 138.468 76.9629 138.468Z" fill="#FBFF00" fill-opacity="0.3"/>
<path d="M74.4558 129.877C74.1957 129.933 73.9362 129.993 73.675 130.047C73.4783 130.209 73.3502 130.45 73.3502 130.725C73.3502 131.211 73.7446 131.605 74.2309 131.605C74.7172 131.605 75.1116 131.211 75.1116 130.725C75.1116 130.316 74.8325 129.976 74.4558 129.877Z" fill="#FBFF00" fill-opacity="0.3"/>
<path d="M71.2847 132.79C70.7984 132.79 70.4041 133.184 70.4041 133.67C70.4041 134.157 70.7984 134.551 71.2847 134.551C71.7711 134.551 72.1654 134.157 72.1654 133.67C72.1657 133.184 71.7713 132.79 71.2847 132.79Z" fill="#FBFF00" fill-opacity="0.3"/>
<path d="M74.2309 135.522C73.7446 135.522 73.3502 135.917 73.3502 136.403C73.3502 136.89 73.7446 137.284 74.2309 137.284C74.7172 137.284 75.1116 136.889 75.1116 136.403C75.1116 135.917 74.7172 135.522 74.2309 135.522Z" fill="#FBFF00" fill-opacity="0.3"/>
<path d="M71.2847 138.468C70.7984 138.468 70.4041 138.862 70.4041 139.349C70.4041 139.835 70.7984 140.229 71.2847 140.229C71.7711 140.229 72.1654 139.835 72.1654 139.349C72.1657 138.862 71.7713 138.468 71.2847 138.468Z" fill="#FBFF00" fill-opacity="0.3"/>
<path d="M68.5528 131.606C69.0147 131.606 69.3891 131.249 69.4263 130.796C68.8625 130.88 68.2967 130.957 67.7286 131.027C67.8524 131.364 68.1729 131.606 68.5528 131.606Z" fill="#FBFF00" fill-opacity="0.3"/>
<path d="M65.6066 132.79C65.1203 132.79 64.726 133.184 64.726 133.67C64.726 134.157 65.1203 134.551 65.6066 134.551C66.093 134.551 66.4873 134.157 66.4873 133.67C66.4876 133.184 66.0932 132.79 65.6066 132.79Z" fill="#FBFF00" fill-opacity="0.3"/>
<path d="M68.5527 135.522C68.0664 135.522 67.6721 135.917 67.6721 136.403C67.6721 136.89 68.0664 137.284 68.5527 137.284C69.0391 137.284 69.4334 136.889 69.4334 136.403C69.4334 135.917 69.0391 135.522 68.5527 135.522Z" fill="#FBFF00" fill-opacity="0.3"/>
<path d="M65.6066 138.468C65.1203 138.468 64.726 138.862 64.726 139.349C64.726 139.835 65.1203 140.229 65.6066 140.229C66.093 140.229 66.4873 139.835 66.4873 139.349C66.4876 138.862 66.0932 138.468 65.6066 138.468Z" fill="#FBFF00" fill-opacity="0.3"/>
<path d="M63.3859 131.44C63.0753 131.46 62.7639 131.477 62.4521 131.493C62.5782 131.563 62.7207 131.606 62.8746 131.606C63.0657 131.606 63.2414 131.543 63.3859 131.44Z" fill="#FBFF00" fill-opacity="0.3"/>
<path d="M59.9285 132.79C59.4422 132.79 59.0479 133.184 59.0479 133.67C59.0479 134.157 59.4422 134.551 59.9285 134.551C60.4149 134.551 60.8092 134.157 60.8092 133.67C60.8095 133.184 60.4151 132.79 59.9285 132.79Z" fill="#FBFF00" fill-opacity="0.3"/>
<path d="M62.8746 135.522C62.3882 135.522 61.9939 135.917 61.9939 136.403C61.9939 136.89 62.3882 137.284 62.8746 137.284C63.3609 137.284 63.7553 136.889 63.7553 136.403C63.7553 135.917 63.3609 135.522 62.8746 135.522Z" fill="#FBFF00" fill-opacity="0.3"/>
<path d="M59.9285 138.468C59.4422 138.468 59.0479 138.862 59.0479 139.349C59.0479 139.835 59.4422 140.229 59.9285 140.229C60.4149 140.229 60.8092 139.835 60.8092 139.349C60.8095 138.862 60.4151 138.468 59.9285 138.468Z" fill="#FBFF00" fill-opacity="0.3"/>
<path d="M57.3239 131.593C57.2217 131.591 57.1195 131.589 57.017 131.587C57.0749 131.599 57.1348 131.606 57.1962 131.606C57.2402 131.606 57.2819 131.599 57.3239 131.593Z" fill="#FBFF00" fill-opacity="0.3"/>
<path d="M54.2504 132.79C53.764 132.79 53.3697 133.184 53.3697 133.67C53.3697 134.157 53.764 134.551 54.2504 134.551C54.7367 134.551 55.131 134.157 55.131 133.67C55.1313 133.184 54.737 132.79 54.2504 132.79Z" fill="#FBFF00" fill-opacity="0.3"/>
<path d="M57.1965 135.522C56.7101 135.522 56.3158 135.917 56.3158 136.403C56.3158 136.89 56.7101 137.284 57.1965 137.284C57.6828 137.284 58.0772 136.889 58.0772 136.403C58.0772 135.917 57.6828 135.522 57.1965 135.522Z" fill="#FBFF00" fill-opacity="0.3"/>
<path d="M51.5183 131.605C51.7659 131.605 51.989 131.502 52.1491 131.338C51.6929 131.3 51.2378 131.256 50.7841 131.21C50.9414 131.448 51.2111 131.605 51.5183 131.605Z" fill="#FBFF00" fill-opacity="0.3"/>
<path d="M145.48 70.8718C145.431 68.7147 145.291 66.5595 145.052 64.4155C143.254 48.1076 136.035 33.0029 124.265 21.2332C114.217 11.1846 101.737 4.45407 88.1527 1.58037C78.1981 -0.526789 67.8009 -0.526789 57.8462 1.58037C44.2624 4.45407 31.7822 11.1846 21.7336 21.2332C9.61162 33.3549 2.31578 49.0144 0.799436 65.8824C0.504173 69.1366 0.426383 72.4074 0.570608 75.6732C1.33347 93.4952 8.50949 110.161 20.9923 123.005C22.2123 124.269 23.4867 125.48 24.7941 126.65C38.0841 138.511 55.0421 145 72.9998 145C90.9538 145 107.909 138.514 121.197 126.657C122.502 125.489 123.775 124.281 124.993 123.02C138.067 109.574 145.323 91.938 145.492 73.1709C145.508 72.4046 145.497 71.6372 145.48 70.8718ZM74.1212 28.9396L102.145 8.57924C114.042 14.0254 124.164 22.6968 131.389 33.4691L120.91 60.8303L102.771 66.7239L74.1209 45.9084V28.9396H74.1212ZM43.8536 8.57895L71.8775 28.9393V45.9079L43.2273 66.7236L24.1459 60.5237L14.0877 34.2612C21.3429 23.1218 31.6669 14.1577 43.8536 8.57895ZM19.1145 117.529C10.2493 106.938 4.44281 93.7056 3.06359 79.2008L23.5043 62.6743L42.4381 68.8262L53.4182 102.619L42.3955 117.791L19.1145 117.529ZM100.498 118.6L99.6109 121.44C99.1553 121.474 98.795 121.85 98.795 122.314C98.795 122.591 98.925 122.835 99.1246 122.996L96.9831 129.848C96.9697 129.847 96.957 129.844 96.9436 129.844C96.4573 129.844 96.0629 130.238 96.0629 130.724C96.0629 131.039 96.229 131.313 96.4766 131.469L94.274 138.516C94.1866 138.487 94.0949 138.468 93.9978 138.468C93.5115 138.468 93.1171 138.862 93.1171 139.348C93.1171 139.507 93.1623 139.654 93.2355 139.782C90.952 140.47 88.6209 141.047 86.2469 141.502C86.0853 141.318 85.8514 141.2 85.5876 141.2C85.2117 141.2 84.8932 141.436 84.7669 141.768C83.4402 141.992 82.101 142.18 80.7504 142.328C80.7737 142.249 80.7902 142.167 80.7902 142.08C80.7902 141.594 80.3958 141.199 79.9095 141.199C79.4232 141.199 79.0288 141.594 79.0288 142.08C79.0288 142.228 79.0686 142.365 79.1327 142.487C77.7075 142.611 76.2704 142.692 74.8225 142.729C74.9993 142.568 75.1123 142.339 75.1123 142.08C75.1123 141.594 74.718 141.2 74.2316 141.2C73.7453 141.2 73.351 141.594 73.351 142.08C73.351 142.35 73.4745 142.588 73.665 142.749C73.4435 142.751 73.2224 142.756 73.0003 142.756C71.7313 142.756 70.4705 142.72 69.2178 142.653C69.351 142.498 69.4342 142.3 69.4342 142.08C69.4342 141.594 69.0398 141.199 68.5535 141.199C68.0672 141.199 67.6728 141.594 67.6728 142.08C67.6728 142.259 67.7271 142.425 67.8188 142.564C66.4512 142.464 65.0944 142.325 63.7495 142.147C63.7512 142.125 63.7563 142.103 63.7563 142.08C63.7563 141.594 63.362 141.199 62.8757 141.199C62.4526 141.199 62.1003 141.498 62.0151 141.895C59.391 141.481 56.8148 140.921 54.2946 140.224C54.7605 140.201 55.1324 139.82 55.1324 139.348C55.1324 138.862 54.738 138.467 54.2517 138.467C53.7654 138.467 53.371 138.862 53.371 139.348C53.371 139.647 53.5212 139.911 53.7492 140.07C53.1712 139.905 52.5951 139.735 52.0233 139.556L51.3033 137.253C51.3729 137.27 51.4444 137.283 51.5194 137.283C52.0057 137.283 52.4001 136.888 52.4001 136.402C52.4001 135.916 52.0057 135.521 51.5194 135.521C51.2542 135.521 51.0191 135.641 50.8576 135.827L45.4736 118.6C45.3944 118.346 45.2289 118.139 45.0176 118L55.198 103.988H90.803L100.975 117.988C100.753 118.127 100.58 118.339 100.498 118.6ZM103.603 117.79L92.5805 102.619L103.561 68.8262L121.563 62.9769L138.559 76.7186C138.548 76.7739 138.542 76.831 138.542 76.8895C138.542 77.3758 138.936 77.7702 139.423 77.7702C139.546 77.7702 139.664 77.744 139.771 77.6981L141.608 79.184C141.534 79.3135 141.488 79.4614 141.488 79.6215C141.488 80.1081 141.882 80.5022 142.368 80.5022C142.531 80.5022 142.681 80.4554 142.811 80.3787C142.658 81.742 142.466 83.0934 142.236 84.4323C141.813 84.4968 141.488 84.8587 141.488 85.2997C141.488 85.6276 141.669 85.9106 141.935 86.062C141.448 88.5419 140.831 90.9752 140.09 93.3549C139.929 93.1656 139.691 93.0432 139.423 93.0432C138.937 93.0432 138.542 93.4376 138.542 93.9239C138.542 94.4102 138.937 94.8046 139.423 94.8046C139.494 94.8046 139.563 94.7938 139.63 94.7776C138.859 97.075 137.976 99.321 136.981 101.506C136.89 101.474 136.793 101.453 136.691 101.453C136.204 101.453 135.81 101.848 135.81 102.334C135.81 102.653 135.982 102.931 136.236 103.085C134.038 107.611 131.37 111.867 128.292 115.788C128.22 115.769 128.145 115.755 128.066 115.755C127.58 115.755 127.186 116.15 127.186 116.636C127.186 116.782 127.225 116.918 127.287 117.038C127.153 117.202 127.02 117.366 126.885 117.528L103.603 117.79Z" fill="#FBFF00" fill-opacity="0.3"/>
</g>
<defs>
<clipPath id="clip0_1_2779">
<rect width="145" height="145" fill="white" transform="translate(0.5)"/>
</clipPath>
</defs>
</svg>
