<svg width="144" height="160" viewBox="0 0 144 160" fill="none" xmlns="http://www.w3.org/2000/svg">
<path d="M70.2546 2.71257C67.2936 7.82416 57.2717 13.3935 45.4276 16.5978C40.113 18.0473 37.0001 18.3525 28.193 18.4288H17.3359L16.0452 24.1507C14.4508 31.0934 14.223 47.7251 15.7415 56.1936C17.1081 64.5094 19.5377 73.1305 20.6765 74.046C21.208 74.5038 22.9542 78.3184 24.5486 82.5145C34.2668 108.606 50.8941 130.197 67.7491 138.742L72.3045 141.031L75.7211 139.352C81.6431 136.453 88.1725 131.342 94.7779 124.323C105.028 113.489 112.772 100.672 119.909 82.7433C121.579 78.3947 123.401 74.3512 123.933 73.7408C126.742 70.4603 129.703 53.2182 129.779 40.4773C129.779 32.7718 128.184 20.1072 127.045 18.9629C126.894 18.8103 121.731 18.5814 115.505 18.5051C105.787 18.3525 103.357 18.0473 97.4352 16.2163C86.9578 13.0121 81.3394 10.0366 76.4044 4.92505C73.9748 2.48369 71.9249 0.500092 71.7731 0.500092C71.6971 0.500092 71.0138 1.49188 70.2546 2.71257ZM84.4523 12.7069C87.8688 14.3853 93.715 16.6741 97.4352 17.7422C103.357 19.5732 105.711 19.8021 115.049 19.8784L125.831 19.9547L127.121 25.2951C129.399 35.2894 128.412 56.1936 125.071 66.6456C124.388 68.7055 123.933 69.087 122.034 68.9344C120.82 68.8581 119.833 68.6292 119.833 68.4004C119.833 68.1715 120.592 64.4332 121.427 60.0082C123.097 51.616 123.781 34.0688 122.642 28.652L122.11 25.9055L113.911 25.4477C100.168 24.6848 84.0727 19.6495 76.1007 13.6224L72.3045 10.647L70.0268 12.478C66.1547 15.7586 54.3866 21.0228 46.6424 23.0064C42.4666 24.0744 35.3298 25.2188 30.6984 25.524L22.2709 26.0581L21.7395 29.1097C20.6765 35.442 21.1321 48.8695 22.8783 59.0164L24.6246 69.087L22.7265 68.7055C19.8414 68.0189 19.0821 66.7219 17.7914 59.2453C15.3619 45.9704 15.5137 29.7201 18.0951 22.0909L18.8544 19.9547L26.3708 20.1835C42.9221 20.7939 64.5603 13.3935 70.4064 5.23022L72.0768 2.86516L75.1896 6.29831C77.1636 8.51079 80.5043 10.7996 84.4523 12.7069ZM79.5932 17.8948C88.4003 22.8538 105.331 27.2024 115.733 27.2024C120.364 27.2024 120.592 27.2787 121.123 29.2623C121.427 30.483 121.655 35.6709 121.655 40.9351C121.579 50.5479 119.605 63.6702 117.175 70.6891C115.809 74.5038 115.733 76.3348 116.872 75.5718C117.935 74.9615 117.403 76.6399 114.366 84.4218C105.939 106.013 90.1466 126.459 75.9489 134.241L72.2286 136.224L67.4454 133.402C54.0829 125.543 39.6574 107.081 31.4577 87.5498C27.5096 78.0895 26.5226 74.7326 27.9652 75.6481C28.6485 76.0296 28.7244 75.8007 28.4207 74.8089C23.6375 58.7112 21.5876 42.0032 23.1061 30.7119L23.6375 27.2024H28.7244C42.087 27.2024 61.5234 21.3279 70.1027 14.6142C72.3045 12.9358 72.4564 12.8595 73.8989 14.2327C74.7341 14.9957 77.3155 16.5978 79.5932 17.8948Z" fill="#FEF100"/>
<path d="M66.3128 23.388C66.085 23.7694 65.0221 24.1509 64.111 24.1509C62.137 24.1509 61.0741 25.219 60.3907 27.8129C59.7834 30.4069 60.5426 31.7802 62.5925 31.7802C63.5795 31.7802 64.4147 32.0853 64.4147 32.3905C64.4147 32.772 66.0091 32.6957 68.059 32.1616C70.4886 31.5513 71.9311 30.6358 72.6144 29.4151C74.057 26.5923 73.4496 24.5324 71.096 24.3035C69.8812 24.1509 68.9701 23.6932 68.9701 23.3117C68.9701 22.3962 66.9202 22.3962 66.3128 23.388ZM65.4776 27.7367C64.7943 30.4069 64.5665 30.7121 63.6555 29.7965C62.6684 28.8047 63.5795 25.6768 64.8702 25.6768C65.7054 25.6768 65.8572 26.2108 65.4776 27.7367ZM70.4886 26.7449C70.4886 28.5759 69.5775 30.2543 68.6664 30.2543C68.059 30.2543 67.8312 29.4151 68.059 27.9655C68.3627 25.6768 70.4886 24.685 70.4886 26.7449Z" fill="#FEF100"/>
<path d="M74.7368 26.5929C74.4331 28.4239 74.0535 30.5601 73.8258 31.3993C73.5221 32.62 73.8258 33.0015 75.0405 33.0015C76.1794 33.0015 76.7868 32.3911 77.0905 30.8653C77.6219 28.0425 79.7478 27.9662 79.4441 30.7127C79.2922 32.3911 79.5959 32.7726 80.8866 32.9252C82.3292 33.0015 82.557 32.6963 82.3292 30.3312C82.1773 28.8054 82.3292 27.2032 82.6329 26.8218C84.2273 24.6093 84.0754 23.3886 82.2533 23.3886C80.9626 23.3886 80.3552 23.8464 80.2033 25.0671C80.0515 25.9826 79.52 26.8218 78.9126 27.0507C78.1534 27.2795 77.9256 26.8981 78.2293 25.3722C78.533 23.6938 78.3812 23.3886 76.9386 23.3886C75.4961 23.3886 75.1165 23.9227 74.7368 26.5929Z" fill="#FEF100"/>
<path d="M33.2751 39.7912C33.2751 41.3933 33.6548 41.6985 35.5529 41.6985C37.5269 41.6985 37.8306 41.9274 37.4509 43.3769C37.2991 44.3687 36.6158 47.4967 35.9325 50.3195C35.3251 53.2187 34.7936 55.8126 34.7936 56.2704C34.7936 56.6518 36.1602 56.957 37.7546 56.957C41.1712 56.957 40.8675 57.491 42.8415 47.9545L44.1322 41.6985H46.6377C48.0802 41.6985 49.2191 41.3933 49.2191 41.0119C49.2191 40.6304 49.4469 39.7912 49.6746 39.1046C50.0542 38.0365 49.0672 37.8839 41.7027 37.8839H33.2751V39.7912Z" fill="#FEF100"/>
<path d="M51.193 39.8673C50.5856 42.0798 47.7005 56.1939 47.7005 56.6516C47.7005 56.8042 51.1171 56.9568 55.2929 56.9568C61.5186 56.9568 62.8852 56.7279 62.8852 55.8124C62.8852 55.2021 62.8852 54.4391 62.8852 54.134C62.8852 53.8288 61.063 53.5236 58.9372 53.5236C56.2039 53.5236 54.9132 53.2185 54.9892 52.5318C55.0651 52.0741 55.141 51.1586 55.2169 50.5482C55.2169 49.8616 56.2799 49.3275 57.7983 49.175C59.6205 49.0224 60.3038 48.5646 60.4557 47.1914C60.6834 45.8181 60.3797 45.5129 58.4816 45.5129C56.5076 45.5129 56.2799 45.284 56.6595 43.6056C56.9632 41.8509 57.2669 41.6983 61.3667 41.6983C65.4666 41.6983 65.7703 41.5457 66.074 39.791L66.4536 37.8837H59.089C51.7244 37.8837 51.6485 37.8837 51.193 39.8673Z" fill="#FEF100"/>
<path d="M68.9674 38.1888C68.9674 38.4177 68.1322 42.4612 67.0693 47.3439C66.0064 52.2267 65.1712 56.3464 65.1712 56.5753C65.1712 56.8042 66.0064 56.9568 66.9934 56.9568C68.5878 56.9568 68.8915 56.4227 70.1822 49.9379C70.9414 46.047 71.7006 43.3767 71.7765 43.9871C71.8525 44.5974 72.1562 47.8017 72.3839 51.006L72.9154 56.9568H75.1172C76.7116 56.9568 77.5467 56.499 78.0023 55.2021C79.7485 50.7771 83.4688 43.0716 83.6965 43.3004C83.9243 43.453 83.3928 46.3521 82.5577 49.709C81.7985 53.0659 81.1151 56.1176 81.1151 56.4227C81.1151 56.8042 82.5577 56.9568 84.3039 56.8042L87.4927 56.5753L89.163 48.5646C91.6685 37.197 91.8204 37.8837 86.3539 37.8837H81.7985L79.9763 41.8509L78.1541 45.8944V41.8509L78.0782 37.8837H73.5228C71.0173 37.8837 68.9674 38.0363 68.9674 38.1888Z" fill="#FEF100"/>
<path d="M94.469 39.1806C93.7857 41.5457 90.9765 54.9732 90.9765 55.965C90.9765 56.5753 92.0395 56.9568 93.9375 56.9568C96.8986 56.9568 96.8986 56.9568 97.7337 53.1422C98.1893 51.006 98.9485 47.5728 99.404 45.5129C100.163 42.0035 100.391 41.6983 102.365 41.6983H104.491L103.048 48.3357C102.213 52.0741 101.454 55.5072 101.226 55.965C100.998 56.6516 101.91 56.9568 104.263 56.9568H107.604L108.439 52.5318C108.894 50.1668 109.806 46.047 110.413 43.3767C111.02 40.7065 111.476 38.4177 111.476 38.1888C111.476 38.0363 107.756 37.8837 103.2 37.8837C95.9116 37.8837 94.8486 38.0363 94.469 39.1806Z" fill="#FEF100"/>
<path d="M62.4368 66.5701C58.7166 68.4011 55.3 72.3683 55.7555 74.1993C56.1352 75.7252 56.3629 75.7252 58.1851 74.8859C59.3239 74.2756 60.9183 73.7416 61.7535 73.589C62.5887 73.4364 64.0312 72.1394 65.0941 70.6899C66.0811 69.2403 67.22 67.867 67.5996 67.7145C68.207 67.4856 66.0811 65.4257 65.1701 65.4257C64.9423 65.3494 63.7275 65.8834 62.4368 66.5701Z" fill="#FEF100"/>
<path d="M77.2426 66.3409C76.1037 67.1801 76.1796 67.5616 78.1537 69.8503C79.2925 71.2999 80.1277 72.6732 79.9758 72.9783C79.748 73.2835 80.4314 73.5124 81.4184 73.5124C82.4054 73.5124 84.2275 74.0464 85.5182 74.7331C87.72 75.8011 87.7959 75.8011 88.1756 74.0464C88.5552 72.0628 85.4423 68.6297 81.3424 66.5698C78.4573 65.1202 78.761 65.1202 77.2426 66.3409Z" fill="#FEF100"/>
<path d="M66.1579 82.9722L64.7154 87.3209L68.4356 90.0674L72.08 92.814L73.7503 91.2118C74.6614 90.3726 76.3317 89.0756 77.4705 88.389C79.3686 87.3209 79.4446 87.0157 78.5335 85.261C77.9261 84.1929 77.3187 82.2093 77.015 80.9886C76.5595 78.7762 76.4076 78.6999 72.0041 78.6999H67.5246L66.1579 82.9722Z" fill="#FEF100"/>
<path d="M52.333 84.1174C51.6497 84.9566 51.4979 86.2536 51.8016 88.3898C52.409 92.2044 55.1422 97.6212 56.1292 96.9345C56.5088 96.7057 57.2681 96.8582 57.7995 97.2397C58.4829 97.8501 58.6347 97.0108 58.331 93.7303C58.0273 90.6023 57.344 88.4661 55.7496 86.101C54.5348 84.3463 53.5478 82.8967 53.4719 82.8967C53.4719 82.973 52.9404 83.5071 52.333 84.1174Z" fill="#FEF100"/>
<path d="M89.4579 83.8882C89.4579 84.4223 88.5468 85.8718 87.4079 87.1688C85.6617 88.9998 85.358 89.9916 85.5098 92.7381C85.6617 94.6455 85.358 96.4765 84.7506 97.1631C83.8395 98.3075 83.9154 98.3075 85.5858 97.4683C87.0283 96.6291 87.4839 96.6291 88.0153 97.4683C88.3949 98.1549 89.2301 97.2394 90.5208 94.3403C92.9503 89.1524 93.1022 85.1852 90.9763 83.8119C89.7616 83.049 89.4579 83.049 89.4579 83.8882Z" fill="#FEF100"/>
<path d="M69.7192 100.139C68.6562 100.75 66.6822 101.131 65.2397 100.978C63.1897 100.75 62.962 100.902 63.949 101.589C64.6323 102.123 65.1637 103.038 65.1637 103.725C65.1637 105.251 66.7581 105.785 71.845 105.785C77.0837 105.785 80.1207 105.098 78.7541 104.183C77.9948 103.725 77.9948 103.344 78.7541 102.428C79.6651 101.36 79.5133 101.207 77.9948 101.207C77.0078 101.207 75.1856 100.673 73.9709 100.063C72.832 99.4526 71.7691 98.9186 71.6932 98.9949C71.6932 99.0712 70.7821 99.5289 69.7192 100.139Z" fill="#FEF100"/>
<path d="M62.4327 113.184C62.2049 114.405 61.9012 115.778 61.6735 116.236C61.5216 116.77 61.9012 117.228 62.5086 117.228C63.116 117.228 63.6475 116.693 63.6475 116.083C63.6475 115.473 64.0271 114.939 64.4067 114.939C64.8623 114.939 65.1659 115.473 65.1659 116.083C65.1659 116.693 65.5456 117.228 65.9252 117.228C66.3807 117.228 66.6844 116.617 66.6844 115.854C66.6844 115.168 66.9122 113.794 67.14 112.803C67.4437 111.887 67.2918 111.124 66.8363 111.124C66.4566 111.124 65.8493 111.887 65.5456 112.803L64.9382 114.557L64.6345 112.803C64.1789 110.514 63.0401 110.666 62.4327 113.184Z" fill="#FEF100"/>
<path d="M68.5064 113.795C67.899 117.076 68.6582 118.144 70.1767 116.16C71.0878 114.863 71.2396 114.787 71.2396 115.931C71.2396 118.144 72.6822 117.381 73.3655 114.71C74.2006 111.659 73.2136 110.286 71.6192 112.345C70.6322 113.642 70.5563 113.642 70.4804 112.422C70.4804 110.057 69.0378 111.048 68.5064 113.795Z" fill="#FEF100"/>
<path d="M75.1914 112.879C74.0525 115.549 74.0525 117.228 75.0396 117.228C75.9506 117.228 76.7858 114.023 76.3303 112.116C76.1025 110.972 75.8747 111.124 75.1914 112.879Z" fill="#FEF100"/>
<path d="M77.7684 113.49C77.0851 117.152 77.161 117.304 79.7424 117.075C81.6405 116.923 82.2479 116.389 82.7034 114.634C83.4627 111.811 83.0071 111.125 80.4257 111.125C78.6036 111.125 78.148 111.506 77.7684 113.49ZM81.109 112.956C81.109 113.185 80.8053 113.566 80.3498 113.795C79.9702 114.024 79.5906 113.871 79.5906 113.49C79.5906 113.032 79.9702 112.65 80.3498 112.65C80.8053 112.65 81.109 112.803 81.109 112.956ZM80.7294 115.702C80.5016 116.084 79.9702 116.465 79.5146 116.465C79.135 116.465 78.8313 116.084 78.8313 115.702C78.8313 115.244 79.3628 114.939 80.0461 114.939C80.6535 114.939 80.9572 115.244 80.7294 115.702Z" fill="#FEF100"/>
<path d="M64.7058 121.195C64.3261 121.805 64.5539 121.882 65.465 121.577C66.5279 121.119 66.7557 121.348 66.3761 122.263C66.0724 123.026 66.3001 123.331 66.8316 123.179C67.3631 122.95 67.8945 122.263 68.0464 121.577C68.3501 120.051 65.5409 119.745 64.7058 121.195Z" fill="#FEF100"/>
<path d="M69.4237 121.5C68.5126 123.865 68.8922 124.933 70.7144 124.704C72.9921 124.399 73.6754 120.279 71.3977 120.279C70.5625 120.279 69.6515 120.813 69.4237 121.5ZM71.4736 122.568C71.2459 123.407 70.7903 124.094 70.4866 124.094C70.107 124.094 70.0311 123.407 70.2589 122.568C70.4866 121.729 70.9422 121.042 71.2459 121.042C71.6255 121.042 71.7014 121.729 71.4736 122.568Z" fill="#FEF100"/>
<path d="M74.2722 121.042C74.2722 121.424 74.8796 121.5 75.6388 121.271C76.7777 120.813 76.8536 120.89 75.7907 122.187C74.8037 123.407 74.8037 123.56 75.7907 123.178C77.6128 122.568 77.6887 120.279 75.8666 120.279C74.9555 120.279 74.2722 120.584 74.2722 121.042Z" fill="#FEF100"/>
<path d="M78.9092 121.653C77.9222 123.56 77.8463 124.857 78.7574 124.857C79.3648 124.857 80.5036 120.89 79.9722 120.432C79.8203 120.28 79.3648 120.814 78.9092 121.653Z" fill="#FEF100"/>
<path d="M64.031 124.094C63.7274 124.552 64.4866 124.857 65.7014 124.857C67.3717 124.857 67.5995 124.705 66.6884 124.094C65.2458 123.179 64.6384 123.179 64.031 124.094Z" fill="#FEF100"/>
<path d="M73.5209 124.094C73.5209 124.476 74.2801 124.857 75.2671 124.857C76.6337 124.857 76.7097 124.705 75.7986 124.094C74.356 123.102 73.5209 123.102 73.5209 124.094Z" fill="#FEF100"/>
<path d="M0.631357 117.838C0.631357 118.143 2.30167 120.432 4.42753 122.95L8.14778 127.375L5.11084 131.113C3.3646 133.097 1.69429 134.928 1.31467 135.233C-0.735266 136.53 1.46652 137.064 8.60332 137.064H16.5753V128.748V120.432L27.5842 119.898C36.2395 119.44 38.5931 119.135 38.5931 118.296C38.5931 117.38 35.3284 117.228 19.6122 117.228C9.21071 117.228 0.631357 117.533 0.631357 117.838Z" fill="#FEF100"/>
<path d="M105.407 118.296C105.407 119.135 107.761 119.44 116.416 119.898L127.425 120.432V128.748V137.064H135.397C142.533 137.064 144.735 136.53 142.685 135.233C142.306 134.928 140.559 133.097 138.889 131.037L135.776 127.298L139.572 122.873C141.622 120.508 143.369 118.219 143.369 117.838C143.369 117.533 134.865 117.228 124.388 117.228C108.672 117.228 105.407 117.38 105.407 118.296Z" fill="#FEF100"/>
<path d="M17.3321 132.639C17.3321 138.208 17.6358 143.167 17.9395 143.625C18.8506 144.922 27.1263 149.576 33.2761 152.094C59.2419 162.927 91.965 161.783 116.792 149.271C126.738 144.236 126.662 144.312 126.662 132.487C126.662 127.07 126.434 122.569 126.206 122.569C125.979 122.569 124.84 123.179 123.777 124.018C116.488 129.13 101.987 134.623 89.915 136.683C85.2078 137.446 81.4116 138.59 79.6654 139.658C78.1469 140.65 75.7173 141.871 74.1989 142.405C71.5415 143.32 71.1619 143.244 66.6065 140.726C63.1899 138.895 59.6215 137.674 54.5347 136.759C50.5866 136.072 44.4368 134.623 40.8684 133.555C34.4909 131.571 20.1413 124.857 19.2302 123.331C17.7877 121.043 17.3321 123.408 17.3321 132.639ZM116.26 140.268C117.855 143.854 118.083 145.151 117.399 145.609C115.653 146.677 114.514 146.219 113.679 144.159C113.148 142.633 112.692 142.405 112.085 143.015C111.401 143.702 111.401 144.388 112.085 145.838C112.844 147.44 112.768 147.821 111.401 148.584C109.503 149.576 109.883 149.958 106.998 144.159L104.644 139.429L106.315 138.514C107.681 137.751 108.137 137.903 108.972 139.048C109.503 139.811 109.959 140.726 109.959 141.108C109.959 141.413 110.338 141.489 110.794 141.184C111.25 140.955 111.401 139.887 111.098 138.743C110.642 136.912 111.553 135.615 113.375 135.538C113.831 135.538 115.122 137.674 116.26 140.268ZM35.7816 138.514C36.7686 139.429 37.0723 140.497 36.7686 141.489C36.1612 143.473 34.0353 142.862 34.0353 140.802C34.0353 138.666 31.378 138.971 30.391 141.26C29.1003 144.159 29.2521 145.456 30.9984 145.456C31.8335 145.456 32.5168 145.151 32.5168 144.693C32.5168 144.312 33.0483 144.159 33.6557 144.388C35.0982 144.999 35.0982 146.524 33.6557 147.745C32.2891 148.889 28.0374 147.592 26.1393 145.533C25.0004 144.236 25.0004 143.93 26.367 140.802C27.2022 138.895 28.1892 137.14 28.4929 136.759C29.4799 135.767 34.1872 136.912 35.7816 138.514ZM46.6386 142.481C48.0052 143.625 48.0052 144.999 46.6386 146.143C46.1072 146.601 45.8035 147.745 45.9553 148.737C46.5627 151.712 44.5887 152.628 40.1092 151.56C38.0593 151.026 36.0852 150.339 35.8575 149.958C35.6297 149.576 36.1612 147.058 37.0723 144.388L38.6666 139.505L42.1591 140.574C44.0572 141.184 46.1072 142.023 46.6386 142.481ZM105.328 144.083C107.302 149.958 107.302 150.492 105.328 151.026C104.113 151.331 103.505 150.949 102.746 149.042L101.683 146.601L101.607 149.423C101.607 151.026 101.304 152.323 100.924 152.323C100.544 152.323 99.7092 152.551 99.0258 152.78C97.4315 153.391 94.2427 143.244 95.6852 142.252C97.4315 141.184 98.4185 141.565 99.1777 143.702L99.9369 145.838L100.013 143.32C100.089 140.955 100.317 140.726 103.657 139.429C103.657 139.353 104.492 141.489 105.328 144.083ZM62.127 144.693C65.2399 144.999 67.8972 145.685 68.0491 146.143C68.2768 146.83 68.6564 146.83 69.3398 146.219C69.8712 145.761 71.9971 145.456 74.047 145.609C77.6913 145.838 77.6913 145.838 78.3747 149.118C78.8302 151.331 78.7543 153.009 78.2228 154.23C77.4636 155.908 76.8562 156.137 73.6674 156.137C69.1879 156.137 68.2009 155.222 68.2009 151.026C68.2009 148.279 67.9731 147.745 66.7584 147.745C65.4677 147.745 65.2399 148.355 65.0121 151.712C64.7843 155.451 64.6325 155.756 62.8863 155.756C61.0641 155.756 60.9882 155.603 61.2159 151.483C61.4437 147.745 61.2919 147.135 59.9252 146.753C58.7105 146.448 58.3308 146.83 58.0271 148.584C57.7994 149.805 57.3438 151.865 57.1161 153.085C56.6605 155.451 55.7494 155.908 53.8514 154.688C53.168 154.23 52.9403 153.314 53.3199 151.941C53.6995 150.415 53.5477 149.958 52.8643 150.186C52.3329 150.415 51.8014 151.254 51.6496 152.17C51.4218 153.467 50.8903 153.848 49.1441 153.848C46.6386 153.848 46.5627 153.772 48.0052 150.873C48.6126 149.729 48.9163 147.974 48.6886 147.058C48.0052 144.312 49.8274 142.939 53.3958 143.549C55.0661 143.854 59.0142 144.388 62.127 144.693ZM94.3186 145.227C95.0778 149.423 95.6852 153.848 95.3815 153.848C95.3056 153.848 92.2687 154.382 88.7002 154.993C85.1318 155.603 81.8671 156.137 81.4116 156.137C80.9561 156.137 80.2727 153.772 79.8172 150.797C79.2857 146.524 79.3617 145.456 80.1968 145.075C82.6264 144.159 83.2338 144.77 83.7652 148.889C83.993 151.178 84.6004 153.085 84.98 153.085C85.4355 153.085 85.5115 151.331 85.2078 148.508C84.6763 144.007 84.7522 143.93 86.6503 143.93C88.3966 143.93 88.6243 144.236 89.0799 148.126C89.3836 150.415 89.991 152.323 90.3706 152.323C90.8261 152.323 90.902 150.568 90.5983 147.745C90.0669 143.244 90.0669 143.167 91.965 143.167C93.4834 143.167 94.0149 143.625 94.3186 145.227Z" fill="#FEF100"/>
<path d="M41.3248 143.855C41.097 144.236 41.4007 144.694 42.0081 144.999C42.6914 145.228 43.1469 144.999 43.1469 144.312C43.1469 143.092 41.9322 142.786 41.3248 143.855Z" fill="#FEF100"/>
<path d="M40.1122 148.05C40.1122 148.736 40.6436 149.27 41.3269 149.27C42.6176 149.27 42.3899 147.592 41.0232 147.134C40.4918 146.981 40.1122 147.363 40.1122 148.05Z" fill="#FEF100"/>
<path d="M52.7147 145.991C51.8796 146.83 52.2592 147.746 53.398 147.746C54.0054 147.746 54.5369 147.44 54.5369 147.059C54.5369 146.067 53.3221 145.381 52.7147 145.991Z" fill="#FEF100"/>
<path d="M72.4537 147.517C72.226 147.745 71.9982 149.348 71.9982 150.95C71.9982 153.01 72.3019 153.849 73.1371 153.849C73.9722 153.849 74.2759 153.01 74.2759 150.873C74.2759 147.974 73.5167 146.525 72.4537 147.517Z" fill="#FEF100"/>
</svg>
