<svg width="30" height="30" viewBox="0 0 30 30" fill="none" xmlns="http://www.w3.org/2000/svg">
<g clip-path="url(#clip0_1_2774)">
<path d="M27.3587 11.3925C26.7087 11.2963 25.9375 11.25 25 11.25C21.9363 11.25 19.02 14.4787 18.205 15.4587C17.4725 15.1562 16.6213 14.9437 15.61 14.97C13.1762 15.025 11.0075 16.2337 9.5525 17.305C10.1413 14.9788 10.0813 12.5262 10.0275 10.45C9.9975 9.26 9.96875 8.2025 10.0863 7.49875H11.9537C12.9075 7.49875 13.7638 6.96875 14.19 6.1175L14.7487 4.99875H14.9862C15.7913 4.99875 16.2362 4.36125 16.2487 3.74875C16.25 1.935 14.7225 0.0075 11.8912 0H11.8687C9.78875 0.0075 8.14875 1.43375 8.1125 1.46875C0.0112498 7.70125 0.0025 17.665 0 20.9387C0 22.45 0.62125 23.9137 1.7075 24.9537C4.1425 27.2812 9.08375 30 15 30C20.7663 30 25.0125 28.505 27.5588 27.2513C29.065 26.51 30 25.005 30 23.3237V14.4812C30 12.9412 28.8637 11.6137 27.3587 11.3912V11.3925ZM28.75 23.325C28.75 24.5262 28.0825 25.6012 27.0062 26.13C24.5787 27.3263 20.525 28.75 15 28.75C9.475 28.75 4.83875 26.2188 2.5725 24.05C1.71875 23.2337 1.24875 22.1288 1.25 20.94C1.2525 17.8175 1.26 8.3175 8.90625 2.43375C8.92 2.4225 10.2775 1.2525 11.8813 1.25C14.1525 1.2525 15 2.785 14.9875 3.75H13.1125C12.61 3.75 12.495 3.4075 12.4875 3.11875C12.4837 2.77625 12.205 2.5 11.8625 2.5C11.5175 2.5 11.2375 2.78 11.2375 3.125C11.2375 3.87875 11.7362 5 13.1125 5H13.3512L13.0725 5.55875C12.86 5.985 12.4312 6.25 11.9537 6.25H9.59875C9.33375 6.25 9.09875 6.41625 9.00875 6.66625C8.70125 7.5375 8.73375 8.8375 8.77625 10.4838C8.845 13.1375 8.93 16.4388 7.5675 19.09C7.56125 19.1025 7.50375 19.2075 7.50375 19.3662C7.50375 19.405 7.48 20 8.1225 20C8.36625 20 8.5725 19.81 8.58125 19.8C8.61375 19.765 11.8575 16.3062 15.6362 16.2213C18.5487 16.165 20.0388 18.3787 20.1025 18.4738C20.295 18.76 20.6838 18.835 20.9688 18.645C21.255 18.4538 21.3338 18.0675 21.1438 17.7812C21.1 17.7175 20.5125 16.8688 19.4237 16.1188C20.3263 15.0363 22.6825 12.5013 24.9975 12.5013C25.86 12.5013 26.5925 12.545 27.1725 12.63C28.0713 12.7613 28.7475 13.5588 28.7475 14.4825V23.325H28.75ZM23.5725 8.2475C23.9925 8.585 24.495 8.7525 25 8.7525C25.505 8.7525 26.0075 8.58375 26.4275 8.2475C26.7938 7.955 30 5.3125 30 2.8125C30 1.26125 28.7375 0 27.1875 0C26.305 0 25.5163 0.40875 25 1.04625C24.4837 0.4075 23.695 0 22.8125 0C21.2625 0 20 1.26125 20 2.8125C20 5.3125 23.2062 7.95375 23.5725 8.2475ZM22.8125 1.25C23.6737 1.25 24.375 1.95125 24.375 2.8125C24.375 3.1575 24.655 3.4375 25 3.4375C25.345 3.4375 25.625 3.1575 25.625 2.8125C25.625 1.95125 26.3263 1.25 27.1875 1.25C28.0487 1.25 28.75 1.95125 28.75 2.8125C28.75 4.25875 26.8938 6.27125 25.6462 7.27125C25.265 7.575 24.735 7.5775 24.355 7.27125C23.1075 6.27125 21.2512 4.25875 21.2512 2.8125C21.2512 1.95125 21.9513 1.25 22.8125 1.25Z" fill="#E1E1E1"/>
</g>
<defs>
<clipPath id="clip0_1_2774">
<rect width="30" height="30" fill="white"/>
</clipPath>
</defs>
</svg>
