<svg width="30" height="30" viewBox="0 0 30 30" fill="none" xmlns="http://www.w3.org/2000/svg">
<g clip-path="url(#clip0_1_2898)">
<path d="M17.51 23.69L20.6312 19.32L22.9475 22.505L25.4888 18.2925L30 24.12V22.0788L20 9.16125V6.215L25.6838 3.12625L19.9338 0H18.75V9.16125L3.75 28.5363V30H30V28.75H5.16625L13.3988 18.1162L17.51 23.69ZM20 4.79125V1.45875L23.0662 3.125L20 4.79125ZM19.375 10.395L24.6688 17.2313L22.85 20.245L20.6225 17.18L17.4937 21.56L14.195 17.0875L19.3763 10.395H19.375ZM7.5 7.5C7.5 6.81 8.06 6.25 8.75 6.25C9.44 6.25 10 6.81 10 7.5C10 8.19 9.44 8.75 8.75 8.75C8.06 8.75 7.5 8.19 7.5 7.5ZM6.25 12.8663V16.25H8.2375C10.0375 14.98 11.1762 12.9537 11.2463 10.8512C12.9612 8.70875 14.5288 6.04625 16.0325 2.72375C16.3625 2 16.21 1.1675 15.6462 0.60375C15.0825 0.0375 14.2487 -0.1125 13.525 0.215C10.145 1.7475 7.4825 3.315 5.39625 5.00375C3.29375 5.07375 1.2675 6.21125 0 8.0125V9.99875H3.38375L4.375 10.99L2.6825 12.6825L3.56625 13.5662L5.25875 11.8737L6.25 12.865V12.8663ZM1.25 8.75V8.4325C2.40375 6.97625 4.08125 6.19 5.85 6.25C7.975 4.475 10.5625 2.93625 14.0413 1.35375C14.4237 1.18125 14.69 1.4125 14.7638 1.48625C14.8375 1.56125 15.065 1.83125 14.895 2.20625C13.345 5.62 11.7963 8.22125 10 10.4025C10.06 12.17 9.2725 13.845 7.8175 15H7.5V12.3487L3.90125 8.75H1.25Z" fill="#E1E1E1"/>
</g>
<defs>
<clipPath id="clip0_1_2898">
<rect width="30" height="30" fill="white"/>
</clipPath>
</defs>
</svg>
