<svg width="30" height="30" viewBox="0 0 30 30" fill="none" xmlns="http://www.w3.org/2000/svg">
<g clip-path="url(#clip0_1_2865)">
<path d="M15 15C14.655 15 14.375 14.72 14.375 14.375V13.75H13.8125C12.6313 13.75 11.64 13.095 11.285 12.0813C11.1713 11.755 11.3425 11.3988 11.6688 11.285C11.995 11.1688 12.3513 11.3438 12.465 11.6688C12.6413 12.1738 13.17 12.5 13.8125 12.5H16.085C16.8663 12.5 17.5 11.865 17.5 11.085C17.5 10.445 17.0688 9.88253 16.4513 9.71753L13.1588 8.83503C12.0338 8.52753 11.25 7.50128 11.25 6.33753C11.25 4.91003 12.4113 3.75003 13.8375 3.75003H14.375V3.12503C14.375 2.78003 14.655 2.50003 15 2.50003C15.345 2.50003 15.625 2.78003 15.625 3.12503V3.75003H16.2963C17.37 3.75003 18.3163 4.39753 18.7075 5.39753C18.8338 5.71878 18.6738 6.08128 18.3525 6.20628C18.03 6.33253 17.6675 6.17503 17.5425 5.85128C17.34 5.33378 16.8513 4.99878 16.295 4.99878H13.8375C13.1 4.99878 12.5 5.59878 12.5 6.33628C12.5 6.93753 12.905 7.46753 13.4863 7.62628L16.775 8.50753C17.9375 8.82003 18.75 9.88003 18.75 11.0838C18.75 12.5538 17.5538 13.7488 16.085 13.7488H15.625V14.3738C15.625 14.7188 15.345 14.9988 15 14.9988V15ZM29.9313 19.9175C27.2213 29.7175 16.2425 30 15 30C13.7575 30 2.77877 29.7163 0.0675217 19.9175C-0.0974783 19.3225 0.0462716 18.68 0.450022 18.1963C0.862522 17.7025 1.48377 17.45 2.11752 17.5025C9.09627 18.1525 12.705 22.9625 14.375 26.2138V17.4675C9.84252 17.145 6.25002 13.3625 6.25002 8.74878C6.25002 3.92503 10.175 -0.0012207 15 -0.0012207C19.825 -0.0012207 23.75 3.92503 23.75 8.74878C23.75 13.3625 20.1575 17.1438 15.625 17.4675V26.2125C17.2938 22.96 20.9025 18.1513 27.8813 17.5013C28.5163 17.4488 29.1363 17.7013 29.5488 18.195C29.9525 18.6788 30.0963 19.3213 29.9313 19.9163V19.9175ZM15 16.25C19.1363 16.25 22.5 12.8863 22.5 8.75003C22.5 4.61378 19.1363 1.25003 15 1.25003C10.8638 1.25003 7.50002 4.61378 7.50002 8.75003C7.50002 12.8863 10.8638 16.25 15 16.25ZM14.1388 28.7188C13.2913 26.3263 10.175 19.51 2.00252 18.7475C1.98252 18.745 1.96127 18.7438 1.94127 18.7438C1.74002 18.7438 1.54502 18.8363 1.40877 18.9988C1.26627 19.1688 1.21627 19.3825 1.27252 19.585C3.41752 27.3375 11.3613 28.5375 14.1388 28.7188ZM28.5913 18.9988C28.4563 18.8375 28.26 18.745 28.0588 18.745C28.0388 18.745 28.0175 18.745 27.9975 18.7488C19.825 19.51 16.71 26.3263 15.8625 28.72C18.6413 28.5388 26.5825 27.34 28.7275 19.585C28.7838 19.3838 28.7338 19.17 28.5913 18.9988Z" fill="#E1E1E1"/>
</g>
<defs>
<clipPath id="clip0_1_2865">
<rect width="30" height="30" fill="white"/>
</clipPath>
</defs>
</svg>
