<svg width="30" height="30" viewBox="0 0 30 30" fill="none" xmlns="http://www.w3.org/2000/svg">
<path d="M29.3037 11.9199C28.775 11.3987 28.04 11.1637 27.3025 11.2774C24.9162 11.6374 22.7212 12.5837 20.8425 13.9624C20.6025 10.4874 19.1862 6.85242 16.95 4.05492C16.0062 2.87492 13.9937 2.87492 13.05 4.05492C10.85 6.80742 9.4075 10.5174 9.15875 13.9612C7.25125 12.5662 5.0175 11.6174 2.5875 11.2737C1.89 11.1774 1.2 11.4062 0.689997 11.9099C0.176247 12.4149 -0.0662527 13.1074 0.0224973 13.8087C1.01125 21.6149 7.45 27.5012 14.9987 27.5012C22.4987 27.5012 28.9387 21.6587 29.9775 13.9099C30.0775 13.1649 29.8312 12.4399 29.3025 11.9199H29.3037ZM14.0262 4.83367C14.4925 4.24992 15.5075 4.24992 15.9737 4.83367C18.2525 7.68492 19.6162 11.4637 19.6287 14.9512C17.4612 16.9124 15.835 19.4987 15.0025 22.4099C14.17 19.4924 12.5437 16.9049 10.3725 14.9462C10.3862 11.5099 11.7837 7.63992 14.0275 4.83367H14.0262ZM1.26375 13.6499C1.22375 13.3387 1.3275 13.0199 1.5675 12.7987C1.89125 12.4999 2.3675 12.5037 2.4125 12.5099C9.03 13.4474 14.0687 19.2887 14.3625 26.2349C7.72 25.9137 2.14625 20.6112 1.26375 13.6499ZM28.74 13.7437C27.8137 20.6524 22.24 25.9149 15.6387 26.2349C15.9312 19.3412 20.9275 13.5012 27.4875 12.5137C27.5462 12.5049 28.125 12.4399 28.4262 12.8112C28.6437 13.0787 28.7862 13.3924 28.7387 13.7437H28.74Z" fill="#E1E1E1"/>
</svg>
