<svg width="30" height="30" viewBox="0 0 30 30" fill="none" xmlns="http://www.w3.org/2000/svg">
<path d="M18.5713 18.9125C16.1375 21.2663 13.8038 21.265 11.4325 18.9175C11.1875 18.675 10.7913 18.6775 10.5488 18.9213C10.3063 19.1663 10.3088 19.5625 10.5538 19.8063C11.9913 21.23 13.48 21.9425 14.975 21.9425C16.47 21.9425 17.9713 21.2325 19.44 19.8113C19.6875 19.5713 19.695 19.1763 19.455 18.9275C19.2175 18.68 18.82 18.6725 18.5713 18.9125Z" fill="#E1E1E1"/>
<path d="M12.045 14.1351C12.045 14.4801 12.325 14.7601 12.67 14.7601C13.015 14.7601 13.295 14.4801 13.295 14.1351C13.295 12.0838 12.165 10.4763 10.7225 10.4763C9.27999 10.4763 8.14999 12.0838 8.14999 14.1351C8.14999 14.4801 8.42999 14.7601 8.77499 14.7601C9.11999 14.7601 9.39999 14.4801 9.39999 14.1351C9.39999 12.7163 10.0975 11.7263 10.7225 11.7263C11.3475 11.7263 12.045 12.7163 12.045 14.1351Z" fill="#E1E1E1"/>
<path d="M19.2738 10.4763C17.8325 10.4763 16.7013 12.0838 16.7013 14.1351C16.7013 14.4801 16.9813 14.7601 17.3263 14.7601C17.6713 14.7601 17.9513 14.4801 17.9513 14.1351C17.9513 12.7163 18.6488 11.7263 19.2738 11.7263C19.8988 11.7263 20.5963 12.7163 20.5963 14.1351C20.5963 14.4801 20.8763 14.7601 21.2213 14.7601C21.5663 14.7601 21.8463 14.4801 21.8463 14.1351C21.8463 12.0838 20.7163 10.4763 19.2738 10.4763Z" fill="#E1E1E1"/>
<path d="M14.9963 1.25C6.1175 1.25 1.25 6.45 1.25 15.0112C1.25 23.7563 5.96375 28.75 15.0037 28.75C23.9587 28.75 28.5837 24.075 28.75 14.9888C28.5975 6.18625 23.7162 1.25 14.9963 1.25ZM15.0037 27.5C6.7475 27.4513 2.6575 23.3625 2.5 15C2.65125 6.7575 6.8575 2.5525 14.9963 2.5C20.6025 2.53625 27.3225 4.7375 27.5 14.9888C27.3463 23.3587 23.2563 27.4513 15.0037 27.5Z" fill="#E1E1E1"/>
</svg>
