<svg width="49" height="55" viewBox="0 0 49 55" fill="none" xmlns="http://www.w3.org/2000/svg">
<g clip-path="url(#clip0_1_2680)">
<path d="M23.9016 1.0215C22.8851 2.77626 19.4447 4.68817 15.3787 5.78817C13.5543 6.28579 12.4857 6.39055 9.46225 6.41674H5.73512L5.29203 8.38103C4.74469 10.7644 4.6665 16.4739 5.18778 19.381C5.65693 22.2358 6.49097 25.1953 6.88193 25.5096C7.06438 25.6667 7.66384 26.9763 8.21118 28.4167C11.5474 37.3739 17.2553 44.7858 23.0415 47.7191L24.6053 48.5048L25.7782 47.9286C27.8112 46.9334 30.0527 45.1786 32.3202 42.7691C35.8388 39.0501 38.4974 34.6501 40.9474 28.4953C41.5208 27.0025 42.1463 25.6144 42.3287 25.4048C43.2931 24.2786 44.3096 18.3596 44.3357 13.9858C44.3357 11.3405 43.7883 6.99293 43.3974 6.60007C43.3452 6.5477 41.5729 6.46912 39.4357 6.44293C36.0995 6.39055 35.2654 6.28579 33.2325 5.65722C29.6357 4.55722 27.7069 3.53579 26.0128 1.78103C25.1787 0.942932 24.475 0.261978 24.4229 0.261978C24.3968 0.261978 24.1622 0.602455 23.9016 1.0215ZM28.7755 4.45246C29.9484 5.02864 31.9553 5.81436 33.2325 6.18103C35.2654 6.8096 36.0734 6.88817 39.2793 6.91436L42.9803 6.94055L43.4234 8.77388C44.2053 12.2048 43.8665 19.381 42.7197 22.9691C42.4851 23.6763 42.3287 23.8072 41.6771 23.7548C41.2601 23.7286 40.9213 23.6501 40.9213 23.5715C40.9213 23.4929 41.1819 22.2096 41.4686 20.6906C42.042 17.8096 42.2766 11.7858 41.8857 9.92627L41.7032 8.98341L38.8883 8.82626C34.1708 8.56436 28.6452 6.83579 25.9085 4.76674L24.6053 3.74531L23.8234 4.37388C22.4942 5.50008 18.4543 7.30722 15.7958 7.98817C14.3622 8.35484 11.9122 8.74769 10.3224 8.85246L7.42927 9.03579L7.24682 10.0834C6.88193 12.2572 7.03831 16.8667 7.63778 20.3501L8.23725 23.8072L7.58565 23.6763C6.59523 23.4406 6.33459 22.9953 5.8915 20.4286C5.05746 15.8715 5.10959 10.2929 5.99576 7.67389L6.2564 6.94055L8.83672 7.01912C14.5186 7.22865 21.9468 4.68817 23.9537 1.88579L24.5271 1.07388L25.5958 2.25246C26.2734 3.01198 27.4202 3.7977 28.7755 4.45246ZM27.1075 6.23341C30.1309 7.93579 35.9431 9.42865 39.5138 9.42865C41.1037 9.42865 41.1819 9.45484 41.3644 10.1358C41.4686 10.5548 41.5468 12.3358 41.5468 14.1429C41.5208 17.4429 40.8431 21.9477 40.0091 24.3572C39.5399 25.6667 39.5138 26.2953 39.9048 26.0334C40.2697 25.8239 40.0872 26.4001 39.0447 29.0715C36.1516 36.4834 30.7303 43.5025 25.8564 46.1739L24.5793 46.8548L22.9372 45.8858C18.35 43.1882 13.3979 36.8501 10.583 30.1453C9.22767 26.8977 8.88884 25.7453 9.38406 26.0596C9.61863 26.1906 9.64469 26.112 9.54044 25.7715C7.89842 20.2453 7.19469 14.5096 7.71597 10.6334L7.89842 9.42865H9.64469C14.2319 9.42865 20.9043 7.41198 23.8495 5.10722C24.6053 4.53103 24.6575 4.50484 25.1527 4.97626C25.4394 5.23817 26.3255 5.78817 27.1075 6.23341Z" fill="#FEF100"/>
<path d="M22.5463 8.11912C22.4681 8.25007 22.1032 8.38103 21.7904 8.38103C21.1128 8.38103 20.7479 8.74769 20.5133 9.63817C20.3048 10.5286 20.5654 11.0001 21.2692 11.0001C21.608 11.0001 21.8947 11.1048 21.8947 11.2096C21.8947 11.3406 22.442 11.3144 23.1458 11.131C23.9798 10.9215 24.475 10.6072 24.7096 10.1882C25.2048 9.21912 24.9963 8.51198 24.1883 8.43341C23.7713 8.38103 23.4585 8.22388 23.4585 8.09293C23.4585 7.77865 22.7548 7.77865 22.5463 8.11912ZM22.2596 9.61198C22.025 10.5286 21.9468 10.6334 21.634 10.3191C21.2952 9.97865 21.608 8.90484 22.0511 8.90484C22.3378 8.90484 22.3899 9.08817 22.2596 9.61198ZM23.9798 9.2715C23.9798 9.90007 23.667 10.4763 23.3543 10.4763C23.1458 10.4763 23.0676 10.1882 23.1458 9.69055C23.25 8.90484 23.9798 8.56436 23.9798 9.2715Z" fill="#FEF100"/>
<path d="M25.4394 9.21912C25.3351 9.84769 25.2048 10.581 25.1266 10.8691C25.0224 11.2882 25.1266 11.4191 25.5436 11.4191C25.9346 11.4191 26.1431 11.2096 26.2474 10.6858C26.4298 9.71674 27.1596 9.69055 27.0553 10.6334C27.0032 11.2096 27.1075 11.3405 27.5505 11.3929C28.0458 11.4191 28.1239 11.3144 28.0458 10.5025C27.9936 9.97864 28.0458 9.42864 28.15 9.29769C28.6974 8.53817 28.6452 8.11912 28.0197 8.11912C27.5766 8.11912 27.3681 8.27626 27.316 8.69531C27.2638 9.0096 27.0814 9.29769 26.8729 9.37626C26.6122 9.45483 26.5341 9.32388 26.6383 8.80007C26.7426 8.22388 26.6904 8.11912 26.1952 8.11912C25.7 8.11912 25.5697 8.30245 25.4394 9.21912Z" fill="#FEF100"/>
<path d="M11.2085 13.7501C11.2085 14.3001 11.3388 14.4048 11.9904 14.4048C12.6681 14.4048 12.7724 14.4834 12.642 14.981C12.5899 15.3215 12.3553 16.3953 12.1208 17.3644C11.9123 18.3596 11.7298 19.2501 11.7298 19.4072C11.7298 19.5382 12.199 19.6429 12.7463 19.6429C13.9192 19.6429 13.8149 19.8263 14.4926 16.5525L14.9357 14.4048H15.7958C16.291 14.4048 16.6819 14.3001 16.6819 14.1691C16.6819 14.0382 16.7601 13.7501 16.8383 13.5144C16.9686 13.1477 16.6298 13.0953 14.1016 13.0953H11.2085V13.7501Z" fill="#FEF100"/>
<path d="M17.3596 13.7763C17.1511 14.5358 16.1607 19.381 16.1607 19.5382C16.1607 19.5905 17.3335 19.6429 18.767 19.6429C20.9043 19.6429 21.3734 19.5644 21.3734 19.2501C21.3734 19.0405 21.3734 18.7786 21.3734 18.6739C21.3734 18.5691 20.7479 18.4644 20.0181 18.4644C19.0798 18.4644 18.6367 18.3596 18.6628 18.1239C18.6888 17.9667 18.7149 17.6525 18.741 17.4429C18.741 17.2072 19.1059 17.0239 19.6271 16.9715C20.2527 16.9191 20.4872 16.762 20.5394 16.2905C20.6176 15.8191 20.5133 15.7144 19.8617 15.7144C19.1841 15.7144 19.1059 15.6358 19.2362 15.0596C19.3404 14.4572 19.4447 14.4048 20.8521 14.4048C22.2596 14.4048 22.3638 14.3525 22.4681 13.7501L22.5984 13.0953H20.0702C17.542 13.0953 17.516 13.0953 17.3596 13.7763Z" fill="#FEF100"/>
<path d="M23.4585 13.2001C23.4585 13.2786 23.1718 14.6667 22.8069 16.3429C22.442 18.0191 22.1553 19.4334 22.1553 19.512C22.1553 19.5905 22.442 19.6429 22.7809 19.6429C23.3282 19.6429 23.4325 19.4596 23.8755 17.2334C24.1362 15.8977 24.3968 14.981 24.4229 15.1905C24.449 15.4001 24.5532 16.5001 24.6314 17.6001L24.8138 19.6429H25.5697C26.117 19.6429 26.4037 19.4858 26.5601 19.0405C27.1596 17.5215 28.4367 14.8763 28.5149 14.9548C28.5931 15.0072 28.4107 16.0025 28.124 17.1548C27.8633 18.3072 27.6287 19.3548 27.6287 19.4596C27.6287 19.5905 28.124 19.6429 28.7234 19.5905L29.8181 19.512L30.3915 16.762C31.2516 12.8596 31.3037 13.0953 29.4271 13.0953H27.8633L27.2378 14.4572L26.6122 15.8453V14.4572L26.5862 13.0953H25.0224C24.1622 13.0953 23.4585 13.1477 23.4585 13.2001Z" fill="#FEF100"/>
<path d="M32.216 13.5405C31.9814 14.3525 31.017 18.962 31.017 19.3025C31.017 19.512 31.3819 19.6429 32.0335 19.6429C33.05 19.6429 33.05 19.6429 33.3367 18.3334C33.4931 17.6001 33.7537 16.4215 33.9101 15.7144C34.1708 14.5096 34.2489 14.4048 34.9266 14.4048H35.6564L35.1612 16.6834C34.8745 17.9667 34.6138 19.1453 34.5356 19.3025C34.4575 19.5382 34.7702 19.6429 35.5782 19.6429H36.725L37.0117 18.1239C37.1681 17.312 37.4809 15.8977 37.6894 14.981C37.8979 14.0644 38.0543 13.2786 38.0543 13.2001C38.0543 13.1477 36.7771 13.0953 35.2133 13.0953C32.7112 13.0953 32.3463 13.1477 32.216 13.5405Z" fill="#FEF100"/>
<path d="M21.217 22.9429C19.9399 23.5715 18.767 24.9334 18.9234 25.562C19.0537 26.0858 19.1319 26.0858 19.7575 25.7977C20.1484 25.5882 20.6958 25.4048 20.9825 25.3525C21.2692 25.3001 21.7644 24.8548 22.1293 24.3572C22.4681 23.8596 22.8591 23.3882 22.9894 23.3358C23.1979 23.2572 22.4681 22.5501 22.1553 22.5501C22.0771 22.5239 21.6601 22.7072 21.217 22.9429Z" fill="#FEF100"/>
<path d="M26.2995 22.8644C25.9085 23.1525 25.9346 23.2834 26.6122 24.0691C27.0032 24.5667 27.2899 25.0382 27.2378 25.1429C27.1596 25.2477 27.3942 25.3263 27.733 25.3263C28.0718 25.3263 28.6973 25.5096 29.1404 25.7453C29.8963 26.112 29.9223 26.112 30.0527 25.5096C30.183 24.8286 29.1144 23.6501 27.7069 22.9429C26.7165 22.4453 26.8208 22.4453 26.2995 22.8644Z" fill="#FEF100"/>
<path d="M22.4942 28.5739L21.9989 30.0667L23.2761 31.0096L24.5271 31.9525L25.1005 31.4025C25.4133 31.1144 25.9867 30.6691 26.3777 30.4334C27.0293 30.0667 27.0553 29.962 26.7426 29.3596C26.5341 28.9929 26.3255 28.312 26.2213 27.8929C26.0649 27.1334 26.0128 27.1072 24.5011 27.1072H22.9633L22.4942 28.5739Z" fill="#FEF100"/>
<path d="M17.7505 28.9667C17.516 29.2548 17.4638 29.7001 17.5681 30.4334C17.7766 31.7429 18.7149 33.6025 19.0537 33.3667C19.1841 33.2882 19.4447 33.3405 19.6271 33.4715C19.8617 33.681 19.9138 33.3929 19.8096 32.2667C19.7053 31.1929 19.4708 30.4596 18.9234 29.6477C18.5064 29.0453 18.1676 28.5477 18.1415 28.5477C18.1415 28.5739 17.9591 28.7572 17.7505 28.9667Z" fill="#FEF100"/>
<path d="M30.4958 28.8882C30.4958 29.0715 30.183 29.5691 29.792 30.0144C29.1926 30.6429 29.0883 30.9834 29.1404 31.9263C29.1926 32.581 29.0883 33.2096 28.8798 33.4453C28.567 33.8382 28.5931 33.8382 29.1665 33.5501C29.6617 33.262 29.8181 33.262 30.0005 33.5501C30.1309 33.7858 30.4176 33.4715 30.8607 32.4763C31.6947 30.6953 31.7468 29.3334 31.017 28.862C30.6 28.6001 30.4958 28.6001 30.4958 28.8882Z" fill="#FEF100"/>
<path d="M23.7192 34.4667C23.3543 34.6763 22.6766 34.8072 22.1814 34.7548C21.4777 34.6763 21.3995 34.7286 21.7383 34.9644C21.9729 35.1477 22.1553 35.462 22.1553 35.6977C22.1553 36.2215 22.7027 36.4048 24.4489 36.4048C26.2474 36.4048 27.2899 36.1691 26.8208 35.8548C26.5601 35.6977 26.5601 35.5667 26.8208 35.2525C27.1335 34.8858 27.0814 34.8334 26.5601 34.8334C26.2213 34.8334 25.5958 34.6501 25.1787 34.4405C24.7878 34.231 24.4229 34.0477 24.3968 34.0739C24.3968 34.1001 24.0841 34.2572 23.7192 34.4667Z" fill="#FEF100"/>
<path d="M21.217 38.9453C21.1388 39.3644 21.0346 39.8358 20.9564 39.9929C20.9043 40.1763 21.0346 40.3334 21.2431 40.3334C21.4516 40.3334 21.6341 40.1501 21.6341 39.9405C21.6341 39.731 21.7644 39.5477 21.8947 39.5477C22.0511 39.5477 22.1553 39.731 22.1553 39.9405C22.1553 40.1501 22.2857 40.3334 22.416 40.3334C22.5724 40.3334 22.6766 40.1239 22.6766 39.862C22.6766 39.6263 22.7548 39.1548 22.833 38.8144C22.9372 38.5001 22.8851 38.2382 22.7287 38.2382C22.5984 38.2382 22.3899 38.5001 22.2857 38.8144L22.0771 39.4167L21.9729 38.8144C21.8165 38.0286 21.4255 38.081 21.217 38.9453Z" fill="#FEF100"/>
<path d="M23.3021 39.1548C23.0936 40.281 23.3543 40.6477 23.8755 39.9667C24.1883 39.5215 24.2404 39.4953 24.2404 39.8882C24.2404 40.6477 24.7357 40.3858 24.9702 39.4691C25.2569 38.4215 24.9181 37.9501 24.3708 38.6572C24.0319 39.1025 24.0059 39.1025 23.9798 38.6834C23.9798 37.8715 23.4846 38.212 23.3021 39.1548Z" fill="#FEF100"/>
<path d="M25.5958 38.8405C25.2048 39.7572 25.2048 40.3334 25.5436 40.3334C25.8564 40.3334 26.1431 39.2334 25.9867 38.5786C25.9085 38.1858 25.8303 38.2382 25.5958 38.8405Z" fill="#FEF100"/>
<path d="M26.4819 39.0501C26.2474 40.3072 26.2734 40.3596 27.1596 40.281C27.8112 40.2286 28.0197 40.0453 28.1761 39.4429C28.4367 38.4739 28.2803 38.2382 27.3942 38.2382C26.7686 38.2382 26.6123 38.3691 26.4819 39.0501ZM27.6287 38.8667C27.6287 38.9453 27.5245 39.0763 27.3681 39.1548C27.2378 39.2334 27.1075 39.181 27.1075 39.0501C27.1075 38.8929 27.2378 38.762 27.3681 38.762C27.5245 38.762 27.6287 38.8144 27.6287 38.8667ZM27.4984 39.8096C27.4202 39.9405 27.2378 40.0715 27.0814 40.0715C26.9511 40.0715 26.8468 39.9405 26.8468 39.8096C26.8468 39.6525 27.0293 39.5477 27.2638 39.5477C27.4724 39.5477 27.5766 39.6525 27.4984 39.8096Z" fill="#FEF100"/>
<path d="M21.9989 41.6953C21.8686 41.9048 21.9468 41.931 22.2596 41.8263C22.6245 41.6691 22.7027 41.7477 22.5723 42.062C22.4681 42.3239 22.5463 42.4286 22.7287 42.3763C22.9112 42.2977 23.0936 42.062 23.1458 41.8263C23.25 41.3025 22.2856 41.1977 21.9989 41.6953Z" fill="#FEF100"/>
<path d="M23.6149 41.8001C23.3021 42.612 23.4325 42.9786 24.058 42.9001C24.8399 42.7953 25.0745 41.381 24.2926 41.381C24.0059 41.381 23.6931 41.5644 23.6149 41.8001ZM24.3186 42.1667C24.2404 42.4548 24.0841 42.6905 23.9798 42.6905C23.8495 42.6905 23.8234 42.4548 23.9016 42.1667C23.9798 41.8786 24.1362 41.6429 24.2404 41.6429C24.3708 41.6429 24.3968 41.8786 24.3186 42.1667Z" fill="#FEF100"/>
<path d="M25.283 41.6429C25.283 41.7739 25.4915 41.8001 25.7521 41.7215C26.1431 41.5644 26.1692 41.5905 25.8043 42.0358C25.4654 42.4548 25.4654 42.5072 25.8043 42.3763C26.4298 42.1667 26.4559 41.381 25.8303 41.381C25.5176 41.381 25.283 41.4858 25.283 41.6429Z" fill="#FEF100"/>
<path d="M26.8729 41.8525C26.5341 42.5072 26.508 42.9525 26.8208 42.9525C27.0293 42.9525 27.4202 41.5905 27.2378 41.4334C27.1857 41.381 27.0293 41.5644 26.8729 41.8525Z" fill="#FEF100"/>
<path d="M21.7644 42.6905C21.6601 42.8477 21.9208 42.9525 22.3378 42.9525C22.9112 42.9525 22.9894 42.9001 22.6766 42.6905C22.1814 42.3763 21.9729 42.3763 21.7644 42.6905Z" fill="#FEF100"/>
<path d="M25.0224 42.6905C25.0224 42.8215 25.283 42.9525 25.6218 42.9525C26.091 42.9525 26.117 42.9001 25.8043 42.6905C25.3091 42.3501 25.0224 42.3501 25.0224 42.6905Z" fill="#FEF100"/>
<path d="M0.00107751 40.5429C0.00107751 40.6477 0.574482 41.4334 1.30427 42.2977L2.5814 43.8167L1.53884 45.1001C0.939375 45.781 0.365971 46.4096 0.235652 46.5144C-0.468071 46.9596 0.28778 47.1429 2.73778 47.1429H5.47448V44.2882V41.4334L9.25374 41.2501C12.225 41.0929 13.033 40.9882 13.033 40.7001C13.033 40.3858 11.9122 40.3334 6.51704 40.3334C2.94629 40.3334 0.00107751 40.4382 0.00107751 40.5429Z" fill="#FEF100"/>
<path d="M35.9692 40.7001C35.9692 40.9882 36.7771 41.0929 39.7484 41.2501L43.5277 41.4334V44.2882V47.1429H46.2644C48.7144 47.1429 49.4702 46.9596 48.7665 46.5144C48.6362 46.4096 48.0367 45.781 47.4633 45.0739L46.3947 43.7905L47.6979 42.2715C48.4016 41.4596 49.0011 40.6739 49.0011 40.5429C49.0011 40.4382 46.0819 40.3334 42.4851 40.3334C37.0899 40.3334 35.9692 40.3858 35.9692 40.7001Z" fill="#FEF100"/>
<path d="M5.73512 45.6239C5.73512 47.5358 5.83938 49.2382 5.94363 49.3953C6.2564 49.8406 9.09736 51.4382 11.2085 52.3025C20.1224 56.0215 31.3559 55.6286 39.8787 51.3334C43.2931 49.6048 43.267 49.631 43.267 45.5715C43.267 43.712 43.1889 42.1667 43.1107 42.1667C43.0325 42.1667 42.6415 42.3763 42.2766 42.6644C39.7745 44.4191 34.7963 46.3048 30.6521 47.012C29.0362 47.2739 27.733 47.6667 27.1335 48.0334C26.6123 48.3739 25.7782 48.7929 25.2569 48.9763C24.3447 49.2906 24.2144 49.2644 22.6506 48.4001C21.4777 47.7715 20.2527 47.3525 18.5064 47.0382C17.1511 46.8025 15.0399 46.3048 13.8149 45.9382C11.6255 45.2572 6.69948 42.9525 6.38672 42.4286C5.89151 41.6429 5.73512 42.4548 5.73512 45.6239ZM39.6963 48.2429C40.2436 49.4739 40.3218 49.9191 40.0873 50.0763C39.4878 50.4429 39.0968 50.2858 38.8101 49.5786C38.6277 49.0548 38.4713 48.9763 38.2628 49.1858C38.0282 49.4215 38.0282 49.6572 38.2628 50.1548C38.5234 50.7048 38.4974 50.8358 38.0282 51.0977C37.3766 51.4382 37.5069 51.5691 36.5165 49.5786L35.7085 47.9548L36.2819 47.6406C36.7511 47.3786 36.9075 47.431 37.1942 47.8239C37.3766 48.0858 37.533 48.4001 37.533 48.531C37.533 48.6358 37.6633 48.662 37.8197 48.5572C37.9761 48.4786 38.0282 48.112 37.924 47.7191C37.7676 47.0906 38.0803 46.6453 38.7059 46.6191C38.8623 46.6191 39.3053 47.3525 39.6963 48.2429ZM12.0686 47.6406C12.4075 47.9548 12.5117 48.3215 12.4075 48.662C12.199 49.3429 11.4692 49.1334 11.4692 48.4263C11.4692 47.6929 10.5569 47.7977 10.2181 48.5834C9.77502 49.5786 9.82714 50.0239 10.4266 50.0239C10.7133 50.0239 10.9479 49.9191 10.9479 49.762C10.9479 49.631 11.1303 49.5786 11.3388 49.6572C11.8341 49.8667 11.8341 50.3906 11.3388 50.8096C10.8697 51.2025 9.41012 50.7572 8.75853 50.0501C8.36757 49.6048 8.36757 49.5001 8.83672 48.4263C9.12342 47.7715 9.46225 47.1691 9.56651 47.0382C9.90534 46.6977 11.5213 47.0906 12.0686 47.6406ZM15.7958 49.0025C16.2649 49.3953 16.2649 49.8667 15.7958 50.2596C15.6133 50.4167 15.5091 50.8096 15.5612 51.1501C15.7697 52.1715 15.092 52.4858 13.5543 52.1191C12.8505 51.9358 12.1729 51.7001 12.0947 51.5691C12.0165 51.4382 12.199 50.5739 12.5117 49.6572L13.0591 47.981L14.258 48.3477C14.9096 48.5572 15.6133 48.8453 15.7958 49.0025ZM35.9431 49.5525C36.6208 51.5691 36.6208 51.7525 35.9431 51.9358C35.5261 52.0406 35.3176 51.9096 35.0569 51.2548L34.692 50.4167L34.666 51.3858C34.666 51.9358 34.5617 52.381 34.4314 52.381C34.3011 52.381 34.0144 52.4596 33.7798 52.5382C33.2325 52.7477 32.1378 49.2644 32.633 48.9239C33.2325 48.5572 33.5713 48.6882 33.8319 49.4215L34.0926 50.1548L34.1186 49.2906C34.1447 48.4786 34.2229 48.4001 35.3697 47.9548C35.3697 47.9286 35.6564 48.662 35.9431 49.5525ZM21.1128 49.762C22.1814 49.8667 23.0936 50.1025 23.1458 50.2596C23.224 50.4953 23.3543 50.4953 23.5888 50.2858C23.7713 50.1286 24.5011 50.0239 25.2048 50.0763C26.4559 50.1548 26.4559 50.1548 26.6904 51.281C26.8468 52.0406 26.8208 52.6167 26.6383 53.0358C26.3777 53.612 26.1692 53.6906 25.0745 53.6906C23.5367 53.6906 23.1979 53.3763 23.1979 51.9358C23.1979 50.9929 23.1197 50.8096 22.7027 50.8096C22.2596 50.8096 22.1814 51.0191 22.1032 52.1715C22.025 53.4548 21.9729 53.5596 21.3734 53.5596C20.7479 53.5596 20.7218 53.5072 20.8 52.0929C20.8782 50.8096 20.8261 50.6001 20.3569 50.4691C19.9399 50.3644 19.8096 50.4953 19.7053 51.0977C19.6271 51.5167 19.4708 52.2239 19.3926 52.6429C19.2362 53.4548 18.9234 53.612 18.2718 53.1929C18.0373 53.0358 17.9591 52.7215 18.0894 52.2501C18.2197 51.7263 18.1676 51.5691 17.933 51.6477C17.7506 51.7263 17.5681 52.0144 17.516 52.3286C17.4378 52.7739 17.2553 52.9048 16.6559 52.9048C15.7958 52.9048 15.7697 52.8786 16.2649 51.8834C16.4734 51.4906 16.5777 50.8882 16.4995 50.5739C16.2649 49.631 16.8904 49.1596 18.1154 49.3691C18.6888 49.4739 20.0442 49.6572 21.1128 49.762ZM32.1638 49.9453C32.4245 51.3858 32.633 52.9048 32.5287 52.9048C32.5027 52.9048 31.4601 53.0882 30.2351 53.2977C29.0101 53.5072 27.8894 53.6906 27.733 53.6906C27.5766 53.6906 27.342 52.8786 27.1857 51.8572C27.0032 50.3906 27.0293 50.0239 27.316 49.8929C28.15 49.5786 28.3585 49.7882 28.541 51.2025C28.6192 51.9882 28.8277 52.6429 28.958 52.6429C29.1144 52.6429 29.1404 52.0406 29.0362 51.0715C28.8537 49.5263 28.8798 49.5001 29.5314 49.5001C30.1309 49.5001 30.2091 49.6048 30.3654 50.9406C30.4697 51.7263 30.6782 52.381 30.8085 52.381C30.9649 52.381 30.991 51.7786 30.8867 50.8096C30.7043 49.2644 30.7043 49.2382 31.3559 49.2382C31.8771 49.2382 32.0596 49.3953 32.1638 49.9453Z" fill="#FEF100"/>
<path d="M13.9713 49.4739C13.8931 49.6048 13.9974 49.762 14.2059 49.8667C14.4404 49.9453 14.5968 49.8667 14.5968 49.631C14.5968 49.212 14.1798 49.1072 13.9713 49.4739Z" fill="#FEF100"/>
<path d="M13.5543 50.9144C13.5543 51.1501 13.7367 51.3334 13.9713 51.3334C14.4144 51.3334 14.3362 50.7572 13.867 50.6001C13.6846 50.5477 13.5543 50.6786 13.5543 50.9144Z" fill="#FEF100"/>
<path d="M17.8809 50.2072C17.5942 50.4953 17.7245 50.8096 18.1154 50.8096C18.324 50.8096 18.5064 50.7048 18.5064 50.5739C18.5064 50.2334 18.0894 49.9977 17.8809 50.2072Z" fill="#FEF100"/>
<path d="M24.6575 50.731C24.5793 50.8096 24.5011 51.3596 24.5011 51.9096C24.5011 52.6167 24.6053 52.9048 24.892 52.9048C25.1787 52.9048 25.283 52.6167 25.283 51.8834C25.283 50.8882 25.0224 50.3906 24.6575 50.731Z" fill="#FEF100"/>
</g>
<defs>
<clipPath id="clip0_1_2680">
<rect width="49" height="55" fill="white"/>
</clipPath>
</defs>
</svg>
