<svg width="58" height="64" viewBox="0 0 58 64" fill="none" xmlns="http://www.w3.org/2000/svg">
<g clip-path="url(#clip0_1_3517)">
<path d="M27.8128 1.18807C26.63 3.22998 22.6266 5.45474 17.8953 6.73474C15.7722 7.31379 14.5288 7.43569 11.0106 7.46617H6.67359L6.158 9.75188C5.5211 12.5252 5.43011 19.169 6.03669 22.5519C6.58261 25.8738 7.55313 29.3176 8.00806 29.6833C8.22036 29.8662 8.91793 31.39 9.55483 33.0662C13.4369 43.489 20.0789 52.1138 26.8119 55.5271L28.6317 56.4414L29.9965 55.7709C32.3621 54.6128 34.9704 52.5709 37.609 49.7671C41.7034 45.4395 44.7969 40.3195 47.6478 33.1576C48.3151 31.4205 49.043 29.8052 49.2553 29.5614C50.3774 28.2509 51.5603 21.3633 51.5906 16.2738C51.5906 13.1957 50.9537 8.13664 50.4987 7.6795C50.4381 7.61855 48.3757 7.52712 45.8888 7.49664C42.0067 7.43569 41.0362 7.31379 38.6705 6.58236C34.4851 5.30236 32.2408 4.11378 30.2694 2.07188C29.2989 1.09664 28.48 0.30426 28.4194 0.30426C28.389 0.30426 28.1161 0.700451 27.8128 1.18807ZM33.4843 5.18045C34.8491 5.85093 37.1844 6.76521 38.6705 7.19188C41.0362 7.92331 41.9763 8.01474 45.7068 8.04521L50.0135 8.07569L50.5291 10.209C51.4389 14.2014 51.0447 22.5519 49.7102 26.7271C49.4372 27.55 49.2553 27.7024 48.497 27.6414C48.0118 27.6109 47.6175 27.5195 47.6175 27.4281C47.6175 27.3366 47.9208 25.8433 48.2544 24.0757C48.9216 20.7233 49.1946 13.7138 48.7397 11.55L48.5274 10.4528L45.2519 10.27C39.7623 9.96521 33.3326 7.95378 30.1481 5.54617L28.6317 4.35759L27.7218 5.08902C26.175 6.3995 21.4741 8.50236 18.3805 9.29474C16.7124 9.72141 13.8615 10.1785 12.0115 10.3005L8.64497 10.5138L8.43267 11.7328C8.00806 14.2624 8.19004 19.6262 8.8876 23.6795L9.58516 27.7024L8.82694 27.55C7.67445 27.2757 7.37116 26.7576 6.85557 23.7709C5.88505 18.4681 5.9457 11.9766 6.97688 8.92902L7.28017 8.07569L10.2827 8.16712C16.8944 8.41093 25.5381 5.45474 27.8734 2.19378L28.5407 1.24902L29.7842 2.62045C30.5727 3.50426 31.9072 4.41854 33.4843 5.18045ZM31.5432 7.25283C35.0614 9.23378 41.8247 10.9709 45.9797 10.9709C47.8298 10.9709 47.9208 11.0014 48.1331 11.7938C48.2544 12.2814 48.3454 14.3538 48.3454 16.4566C48.3151 20.2966 47.5265 25.5385 46.556 28.3424C46.0101 29.8662 45.9797 30.5976 46.4347 30.2928C46.8593 30.049 46.647 30.7195 45.4338 33.8281C42.0673 42.4528 35.7589 50.6205 30.0874 53.729L28.6013 54.5214L26.6906 53.3938C21.3527 50.2547 15.5903 42.8795 12.3148 35.0776C10.7377 31.2985 10.3434 29.9576 10.9196 30.3233C11.1926 30.4757 11.2229 30.3843 11.1016 29.9881C9.19089 23.5576 8.37201 16.8833 8.97859 12.3728L9.19089 10.9709H11.2229C16.5608 10.9709 24.325 8.62426 27.7521 5.94236C28.6317 5.27188 28.6923 5.24141 29.2686 5.78997C29.6022 6.09474 30.6334 6.73474 31.5432 7.25283Z" fill="#FEF100"/>
<path d="M26.2357 9.44724C26.1447 9.59962 25.7201 9.75201 25.3561 9.75201C24.5676 9.75201 24.143 10.1787 23.87 11.2149C23.6274 12.2511 23.9307 12.7996 24.7496 12.7996C25.1438 12.7996 25.4775 12.9215 25.4775 13.0434C25.4775 13.1958 26.1144 13.1653 26.9332 12.952C27.9038 12.7082 28.48 12.3425 28.753 11.8549C29.3292 10.7272 29.0866 9.90439 28.1464 9.81296C27.6611 9.75201 27.2972 9.56915 27.2972 9.41677C27.2972 9.05105 26.4783 9.05105 26.2357 9.44724ZM25.9021 11.1844C25.6291 12.2511 25.5381 12.373 25.1742 12.0072C24.7799 11.6111 25.1438 10.3615 25.6594 10.3615C25.993 10.3615 26.0537 10.5749 25.9021 11.1844ZM27.9038 10.7882C27.9038 11.5196 27.5398 12.1901 27.1759 12.1901C26.9332 12.1901 26.8423 11.8549 26.9332 11.2758C27.0546 10.3615 27.9038 9.96534 27.9038 10.7882Z" fill="#FEF100"/>
<path d="M29.6022 10.7271C29.4809 11.4585 29.3292 12.3119 29.2382 12.6471C29.1169 13.1347 29.2382 13.2871 29.7235 13.2871C30.1784 13.2871 30.4211 13.0433 30.5424 12.4338C30.7547 11.3062 31.6039 11.2757 31.4826 12.3728C31.4219 13.0433 31.5432 13.1957 32.0588 13.2566C32.6351 13.2871 32.7261 13.1652 32.6351 12.2204C32.5744 11.6109 32.6351 10.9709 32.7564 10.8185C33.3933 9.93473 33.3326 9.44711 32.6047 9.44711C32.0892 9.44711 31.8465 9.62997 31.7859 10.1176C31.7252 10.4833 31.5129 10.8185 31.2703 10.91C30.967 11.0014 30.876 10.849 30.9973 10.2395C31.1186 9.56901 31.058 9.44711 30.4817 9.44711C29.9055 9.44711 29.7538 9.66044 29.6022 10.7271Z" fill="#FEF100"/>
<path d="M13.0426 16.0001C13.0426 16.6401 13.1943 16.762 13.9525 16.762C14.7411 16.762 14.8624 16.8534 14.7107 17.4324C14.6501 17.8286 14.3771 19.0782 14.1042 20.2058C13.8615 21.3639 13.6492 22.4001 13.6492 22.5829C13.6492 22.7353 14.1951 22.8572 14.832 22.8572C16.1968 22.8572 16.0755 23.0705 16.8641 19.261L17.3797 16.762H18.3805C18.9568 16.762 19.4117 16.6401 19.4117 16.4877C19.4117 16.3353 19.5027 16.0001 19.5937 15.7258C19.7453 15.2991 19.351 15.2382 16.4091 15.2382H13.0426V16.0001Z" fill="#FEF100"/>
<path d="M20.2002 16.0308C19.9576 16.9146 18.8051 22.5527 18.8051 22.7355C18.8051 22.7965 20.1699 22.8574 21.838 22.8574C24.325 22.8574 24.8709 22.766 24.8709 22.4003C24.8709 22.1565 24.8709 21.8517 24.8709 21.7298C24.8709 21.6079 24.143 21.486 23.2938 21.486C22.2019 21.486 21.6864 21.3641 21.7167 21.0898C21.747 20.9069 21.7773 20.5412 21.8077 20.2974C21.8077 20.0231 22.2323 19.8098 22.8388 19.7489C23.5667 19.6879 23.8397 19.505 23.9004 18.9565C23.9913 18.4079 23.87 18.286 23.1118 18.286C22.3233 18.286 22.2323 18.1946 22.3839 17.5241C22.5052 16.8231 22.6265 16.7622 24.2643 16.7622C25.9021 16.7622 26.0234 16.7012 26.1447 16.0003L26.2963 15.2384H23.3544C20.4125 15.2384 20.3822 15.2384 20.2002 16.0308Z" fill="#FEF100"/>
<path d="M27.2972 15.3603C27.2972 15.4517 26.9636 17.0669 26.539 19.0174C26.1144 20.9679 25.7807 22.6136 25.7807 22.705C25.7807 22.7965 26.1144 22.8574 26.5086 22.8574C27.1455 22.8574 27.2669 22.6441 27.7824 20.0536C28.0857 18.4993 28.389 17.4327 28.4194 17.6765C28.4497 17.9203 28.571 19.2003 28.662 20.4803L28.8743 22.8574H29.7538C30.3907 22.8574 30.7243 22.6746 30.9063 22.1565C31.6039 20.3889 33.09 17.3108 33.181 17.4022C33.272 17.4631 33.0597 18.6212 32.726 19.9622C32.4228 21.3031 32.1498 22.5222 32.1498 22.6441C32.1498 22.7965 32.726 22.8574 33.4236 22.7965L34.6974 22.705L35.3647 19.505C36.3655 14.9641 36.4262 15.2384 34.2425 15.2384H32.4228L31.6949 16.8231L30.967 18.4384V16.8231L30.9366 15.2384H29.1169C28.1161 15.2384 27.2972 15.2993 27.2972 15.3603Z" fill="#FEF100"/>
<path d="M37.4877 15.7565C37.2147 16.7012 36.0925 22.065 36.0925 22.4612C36.0925 22.705 36.5171 22.8574 37.2754 22.8574C38.4582 22.8574 38.4582 22.8574 38.7918 21.3336C38.9738 20.4803 39.2771 19.1089 39.459 18.286C39.7623 16.8841 39.8533 16.7622 40.6419 16.7622H41.4911L40.9148 19.4136C40.5812 20.9069 40.2779 22.2784 40.1869 22.4612C40.0959 22.7355 40.4599 22.8574 41.4001 22.8574H42.7346L43.0682 21.0898C43.2501 20.145 43.6141 18.4993 43.8567 17.4327C44.0994 16.366 44.2813 15.4517 44.2813 15.3603C44.2813 15.2993 42.7952 15.2384 40.9755 15.2384C38.0639 15.2384 37.6393 15.2993 37.4877 15.7565Z" fill="#FEF100"/>
<path d="M24.6889 26.6965C23.2028 27.428 21.838 29.0127 22.02 29.7442C22.1716 30.3537 22.2626 30.3537 22.9905 30.0184C23.4454 29.7746 24.0823 29.5613 24.416 29.5004C24.7496 29.4394 25.3258 28.9213 25.7504 28.3423C26.1447 27.7632 26.5996 27.2146 26.7513 27.1537C26.9939 27.0623 26.1447 26.2394 25.7807 26.2394C25.6898 26.2089 25.2045 26.4223 24.6889 26.6965Z" fill="#FEF100"/>
<path d="M30.603 26.6056C30.1481 26.9408 30.1784 27.0932 30.967 28.0075C31.4219 28.5865 31.7555 29.1351 31.6949 29.257C31.6039 29.3789 31.8768 29.4703 32.2711 29.4703C32.6654 29.4703 33.3933 29.6837 33.9089 29.958C34.7884 30.3846 34.8187 30.3846 34.9704 29.6837C35.122 28.8913 33.8785 27.5199 32.2408 26.697C31.0883 26.118 31.2096 26.118 30.603 26.6056Z" fill="#FEF100"/>
<path d="M26.175 33.2492L25.5988 34.9864L27.0849 36.0835L28.5407 37.1807L29.2079 36.5407C29.5719 36.2054 30.2391 35.6873 30.694 35.413C31.4522 34.9864 31.4826 34.8645 31.1186 34.1635C30.876 33.7369 30.6334 32.9445 30.5121 32.4569C30.3301 31.573 30.2694 31.5426 28.5104 31.5426H26.721L26.175 33.2492Z" fill="#FEF100"/>
<path d="M20.6552 33.7069C20.3822 34.0421 20.3216 34.5602 20.4429 35.4136C20.6855 36.9374 21.7773 39.1012 22.1716 38.8269C22.3233 38.7355 22.6266 38.7964 22.8389 38.9488C23.1118 39.1926 23.1725 38.8574 23.0512 37.5469C22.9298 36.2974 22.6569 35.4441 22.02 34.4993C21.5347 33.7983 21.1404 33.2193 21.1101 33.2193C21.1101 33.2498 20.8978 33.4631 20.6552 33.7069Z" fill="#FEF100"/>
<path d="M35.486 33.6146C35.486 33.828 35.122 34.407 34.6671 34.9251C33.9695 35.6565 33.8482 36.0527 33.9089 37.1499C33.9695 37.9118 33.8482 38.6432 33.6056 38.9175C33.2416 39.3746 33.272 39.3746 33.9392 39.0394C34.5155 38.7041 34.6974 38.7041 34.9097 39.0394C35.0614 39.3137 35.395 38.948 35.9106 37.7899C36.8811 35.7175 36.9418 34.1327 36.0926 33.5841C35.6073 33.2794 35.486 33.2794 35.486 33.6146Z" fill="#FEF100"/>
<path d="M27.6005 40.1061C27.1759 40.3499 26.3873 40.5023 25.8111 40.4413C24.9922 40.3499 24.9012 40.4109 25.2955 40.6851C25.5685 40.8985 25.7808 41.2642 25.7808 41.5385C25.7808 42.148 26.4177 42.3613 28.4497 42.3613C30.5424 42.3613 31.7555 42.087 31.2096 41.7213C30.9063 41.5385 30.9063 41.3861 31.2096 41.0204C31.5736 40.5937 31.5129 40.5328 30.9063 40.5328C30.512 40.5328 29.7842 40.3194 29.2989 40.0756C28.844 39.8318 28.4194 39.6185 28.389 39.6489C28.389 39.6794 28.0251 39.8623 27.6005 40.1061Z" fill="#FEF100"/>
<path d="M24.6889 45.3184C24.5979 45.806 24.4766 46.3545 24.3856 46.5374C24.325 46.7507 24.4766 46.9336 24.7192 46.9336C24.9619 46.9336 25.1742 46.7203 25.1742 46.4765C25.1742 46.2326 25.3258 46.0193 25.4775 46.0193C25.6594 46.0193 25.7808 46.2326 25.7808 46.4765C25.7808 46.7203 25.9324 46.9336 26.084 46.9336C26.266 46.9336 26.3873 46.6898 26.3873 46.385C26.3873 46.1107 26.4783 45.5622 26.5693 45.166C26.6906 44.8003 26.63 44.4955 26.448 44.4955C26.2963 44.4955 26.0537 44.8003 25.9324 45.166L25.6898 45.8669L25.5685 45.166C25.3865 44.2517 24.9315 44.3126 24.6889 45.3184Z" fill="#FEF100"/>
<path d="M27.1152 45.5619C26.8726 46.8724 27.1759 47.2991 27.7825 46.5067C28.1464 45.9886 28.2071 45.9581 28.2071 46.4153C28.2071 47.2991 28.7833 46.9943 29.0563 45.9276C29.3899 44.7086 28.9956 44.16 28.3587 44.9829C27.9644 45.501 27.9341 45.501 27.9038 45.0133C27.9038 44.0686 27.3275 44.4648 27.1152 45.5619Z" fill="#FEF100"/>
<path d="M29.7842 45.1965C29.3292 46.2631 29.3292 46.9336 29.7235 46.9336C30.0874 46.9336 30.4211 45.6536 30.2391 44.8917C30.1481 44.4345 30.0571 44.4955 29.7842 45.1965Z" fill="#FEF100"/>
<path d="M30.8153 45.4397C30.5424 46.9026 30.5727 46.9635 31.6039 46.8721C32.3621 46.8112 32.6047 46.5978 32.7867 45.8969C33.09 44.7693 32.908 44.495 31.8769 44.495C31.149 44.495 30.967 44.6473 30.8153 45.4397ZM32.1498 45.2264C32.1498 45.3178 32.0285 45.4702 31.8465 45.5616C31.6949 45.6531 31.5432 45.5921 31.5432 45.4397C31.5432 45.2569 31.6949 45.1045 31.8465 45.1045C32.0285 45.1045 32.1498 45.1654 32.1498 45.2264ZM31.9982 46.3235C31.9072 46.4759 31.6949 46.6283 31.5129 46.6283C31.3613 46.6283 31.2399 46.4759 31.2399 46.3235C31.2399 46.1407 31.4522 46.0188 31.7252 46.0188C31.9678 46.0188 32.0892 46.1407 31.9982 46.3235Z" fill="#FEF100"/>
<path d="M25.5988 48.5176C25.4471 48.7614 25.5381 48.7919 25.9021 48.67C26.3267 48.4871 26.4177 48.5785 26.266 48.9442C26.1447 49.249 26.2357 49.3709 26.448 49.31C26.6603 49.2185 26.8726 48.9442 26.9332 48.67C27.0546 48.0604 25.9324 47.9385 25.5988 48.5176Z" fill="#FEF100"/>
<path d="M27.4792 48.6395C27.1152 49.5843 27.2669 50.011 27.9948 49.9195C28.9046 49.7976 29.1776 48.1519 28.2677 48.1519C27.9341 48.1519 27.5702 48.3653 27.4792 48.6395ZM28.298 49.0662C28.2071 49.4014 28.0251 49.6757 27.9038 49.6757C27.7521 49.6757 27.7218 49.4014 27.8128 49.0662C27.9038 48.731 28.0857 48.4567 28.2071 48.4567C28.3587 48.4567 28.389 48.731 28.298 49.0662Z" fill="#FEF100"/>
<path d="M29.4202 48.4566C29.4202 48.609 29.6628 48.6395 29.9661 48.548C30.4211 48.3652 30.4514 48.3956 30.0268 48.9137C29.6325 49.4014 29.6325 49.4623 30.0268 49.3099C30.7547 49.0661 30.785 48.1518 30.0571 48.1518C29.6932 48.1518 29.4202 48.2737 29.4202 48.4566Z" fill="#FEF100"/>
<path d="M31.2703 48.7005C30.876 49.4624 30.8457 49.9805 31.2096 49.9805C31.4522 49.9805 31.9072 48.3957 31.6949 48.2128C31.6342 48.1519 31.4522 48.3652 31.2703 48.7005Z" fill="#FEF100"/>
<path d="M25.3258 49.6757C25.2045 49.8586 25.5078 49.9805 25.9931 49.9805C26.6603 49.9805 26.7513 49.9195 26.3873 49.6757C25.8111 49.31 25.5685 49.31 25.3258 49.6757Z" fill="#FEF100"/>
<path d="M29.1169 49.6757C29.1169 49.8281 29.4202 49.9805 29.8145 49.9805C30.3604 49.9805 30.3907 49.9195 30.0268 49.6757C29.4505 49.2795 29.1169 49.2795 29.1169 49.6757Z" fill="#FEF100"/>
<path d="M0.00125481 47.1774C0.00125481 47.2993 0.668489 48.2136 1.5177 49.2193L3.00381 50.9869L1.79066 52.4803C1.09309 53.2727 0.425858 54.0041 0.274214 54.126C-0.544664 54.6441 0.334872 54.8574 3.18578 54.8574H6.37031V51.5355V48.2136L10.768 48.0003C14.2255 47.8174 15.1657 47.6955 15.1657 47.3603C15.1657 46.9946 13.8615 46.9336 7.58346 46.9336C3.42841 46.9336 0.00125481 47.0555 0.00125481 47.1774Z" fill="#FEF100"/>
<path d="M41.855 47.3603C41.855 47.6955 42.7952 47.8174 46.2527 48.0003L50.6504 48.2136V51.5355V54.8574H53.8349C56.6858 54.8574 57.5654 54.6441 56.7465 54.126C56.5948 54.0041 55.8973 53.2727 55.23 52.4498L53.9866 50.9565L55.503 49.1888C56.3219 48.2441 57.0194 47.3298 57.0194 47.1774C57.0194 47.0555 53.6226 46.9336 49.4372 46.9336C43.1592 46.9336 41.855 46.9946 41.855 47.3603Z" fill="#FEF100"/>
<path d="M6.67359 53.0893C6.67359 55.3141 6.79491 57.2951 6.91622 57.4779C7.28017 57.996 10.586 59.8551 13.0426 60.8608C23.4151 65.1884 36.4868 64.7312 46.4043 59.7332C50.3774 57.7217 50.3471 57.7522 50.3471 53.0284C50.3471 50.8646 50.2561 49.0665 50.1651 49.0665C50.0741 49.0665 49.6192 49.3103 49.1946 49.6455C46.283 51.6874 40.4902 53.8817 35.6679 54.7046C33.7876 55.0093 32.2711 55.4665 31.5736 55.8932C30.967 56.2893 29.9965 56.777 29.3899 56.9903C28.3284 57.356 28.1767 57.3255 26.357 56.3198C24.9922 55.5884 23.5667 55.1008 21.5347 54.7351C19.9576 54.4608 17.501 53.8817 16.0755 53.4551C13.5279 52.6627 7.79576 49.9808 7.43181 49.3713C6.85556 48.457 6.67359 49.4017 6.67359 53.0893ZM46.192 56.137C46.829 57.5693 46.9199 58.0874 46.647 58.2703C45.9494 58.697 45.4945 58.5141 45.1609 57.6912C44.9486 57.0817 44.7666 56.9903 44.524 57.2341C44.251 57.5084 44.251 57.7827 44.524 58.3617C44.8272 59.0017 44.7969 59.1541 44.251 59.4589C43.4928 59.8551 43.6444 60.0074 42.4919 57.6912L41.5517 55.8017L42.219 55.436C42.7649 55.1313 42.9469 55.1922 43.2805 55.6493C43.4928 55.9541 43.6748 56.3198 43.6748 56.4722C43.6748 56.5941 43.8264 56.6246 44.0084 56.5027C44.1903 56.4113 44.251 55.9846 44.1297 55.5274C43.9477 54.796 44.3117 54.2779 45.0396 54.2474C45.2215 54.2474 45.7371 55.1008 46.192 56.137ZM14.0435 55.436C14.4378 55.8017 14.5591 56.2284 14.4378 56.6246C14.1951 57.417 13.3459 57.1732 13.3459 56.3503C13.3459 55.497 12.2844 55.6189 11.8901 56.5332C11.3746 57.6912 11.4352 58.2093 12.1328 58.2093C12.4664 58.2093 12.7394 58.0874 12.7394 57.9046C12.7394 57.7522 12.9517 57.6912 13.1943 57.7827C13.7705 58.0265 13.7705 58.636 13.1943 59.1236C12.6484 59.5808 10.95 59.0627 10.1917 58.2398C9.7368 57.7217 9.7368 57.5998 10.2827 56.3503C10.6163 55.5884 11.0106 54.8874 11.1319 54.7351C11.5262 54.3389 13.4066 54.796 14.0435 55.436ZM18.3805 57.0208C18.9264 57.4779 18.9264 58.0265 18.3805 58.4836C18.1682 58.6665 18.0469 59.1236 18.1076 59.5198C18.3502 60.7084 17.5616 61.0741 15.7722 60.6474C14.9534 60.4341 14.1648 60.1598 14.0738 60.0074C13.9828 59.8551 14.1951 58.8493 14.5591 57.7827L15.196 55.8322L16.5911 56.2589C17.3493 56.5027 18.1682 56.8379 18.3805 57.0208ZM41.8247 57.6608C42.6132 60.0074 42.6132 60.2208 41.8247 60.4341C41.3394 60.556 41.0968 60.4036 40.7935 59.6417L40.3689 58.6665L40.3386 59.7941C40.3386 60.4341 40.2173 60.9522 40.0656 60.9522C39.914 60.9522 39.5804 61.0436 39.3074 61.1351C38.6705 61.3789 37.3967 57.3255 37.9729 56.9293C38.6705 56.5027 39.0648 56.6551 39.3681 57.5084L39.6713 58.3617L39.7017 57.356C39.732 56.4113 39.823 56.3198 41.1575 55.8017C41.1575 55.7712 41.4911 56.6246 41.8247 57.6608ZM24.5676 57.9046C25.8111 58.0265 26.8726 58.3008 26.9332 58.4836C27.0242 58.7579 27.1759 58.7579 27.4488 58.5141C27.6611 58.3313 28.5103 58.2093 29.3292 58.2703C30.785 58.3617 30.785 58.3617 31.058 59.6722C31.2399 60.556 31.2096 61.2265 30.9973 61.7141C30.694 62.3846 30.4514 62.476 29.1776 62.476C27.3882 62.476 26.9939 62.1103 26.9939 60.4341C26.9939 59.337 26.9029 59.1236 26.4177 59.1236C25.9021 59.1236 25.8111 59.3674 25.7201 60.7084C25.6291 62.2017 25.5684 62.3236 24.8709 62.3236C24.143 62.3236 24.1127 62.2627 24.2036 60.617C24.2946 59.1236 24.234 58.8798 23.6881 58.7274C23.2028 58.6055 23.0512 58.7579 22.9298 59.4589C22.8389 59.9465 22.6569 60.7693 22.5659 61.257C22.3839 62.2017 22.02 62.3846 21.2618 61.897C20.9888 61.7141 20.8978 61.3484 21.0495 60.7998C21.2011 60.1903 21.1404 60.0074 20.8675 60.0989C20.6552 60.1903 20.4429 60.5255 20.3822 60.8913C20.2912 61.4093 20.0789 61.5617 19.3814 61.5617C18.3805 61.5617 18.3502 61.5312 18.9264 60.3732C19.1691 59.916 19.2904 59.2151 19.1994 58.8493C18.9264 57.7522 19.6543 57.2036 21.0798 57.4474C21.747 57.5693 23.3241 57.7827 24.5676 57.9046ZM37.427 58.1179C37.7303 59.7941 37.9729 61.5617 37.8516 61.5617C37.8213 61.5617 36.6081 61.7751 35.1827 62.0189C33.7572 62.2627 32.4531 62.476 32.2711 62.476C32.0891 62.476 31.8162 61.5312 31.6342 60.3427C31.4219 58.636 31.4522 58.2093 31.7859 58.057C32.7564 57.6912 32.999 57.9351 33.2113 59.5808C33.3023 60.4951 33.5449 61.257 33.6966 61.257C33.8785 61.257 33.9089 60.556 33.7876 59.4284C33.5753 57.6303 33.6056 57.5998 34.3638 57.5998C35.0614 57.5998 35.1524 57.7217 35.3343 59.276C35.4556 60.1903 35.6983 60.9522 35.8499 60.9522C36.0319 60.9522 36.0622 60.2513 35.9409 59.1236C35.7286 57.3255 35.7286 57.2951 36.4868 57.2951C37.0934 57.2951 37.3057 57.4779 37.427 58.1179Z" fill="#FEF100"/>
<path d="M16.2575 57.5691C16.1665 57.7215 16.2878 57.9044 16.5305 58.0263C16.8034 58.1177 16.9854 58.0263 16.9854 57.752C16.9854 57.2644 16.5001 57.1425 16.2575 57.5691Z" fill="#FEF100"/>
<path d="M15.7722 59.2458C15.7722 59.5201 15.9845 59.7334 16.2575 59.7334C16.7731 59.7334 16.6821 59.0629 16.1362 58.8801C15.9239 58.8191 15.7722 58.9715 15.7722 59.2458Z" fill="#FEF100"/>
<path d="M20.8068 58.4231C20.4732 58.7583 20.6249 59.124 21.0798 59.124C21.3224 59.124 21.5347 59.0021 21.5347 58.8497C21.5347 58.4535 21.0495 58.1793 20.8068 58.4231Z" fill="#FEF100"/>
<path d="M28.6923 59.032C28.6013 59.1234 28.5103 59.7634 28.5103 60.4034C28.5103 61.2263 28.6317 61.5615 28.9653 61.5615C29.2989 61.5615 29.4202 61.2263 29.4202 60.373C29.4202 59.2149 29.1169 58.6358 28.6923 59.032Z" fill="#FEF100"/>
</g>
<defs>
<clipPath id="clip0_1_3517">
<rect width="57.0182" height="64" fill="white"/>
</clipPath>
</defs>
</svg>
