<svg width="30" height="30" viewBox="0 0 30 30" fill="none" xmlns="http://www.w3.org/2000/svg">
<g clip-path="url(#clip0_1_2718)">
<path d="M27.5 14.375C27.5 14.72 27.22 15 26.875 15H23.2875C22.1975 15 21.1725 14.42 20.61 13.4863C20.61 13.4863 18.2612 9.5875 18.2375 9.55375L14.7388 17.1375C14.6338 17.3663 14.4063 17.5013 14.17 17.5013C14.0825 17.5013 13.9937 17.4825 13.9087 17.4438C13.595 17.2988 13.4587 16.9275 13.6025 16.6138L17.1987 8.82C17.0375 8.775 16.87 8.75125 16.6988 8.75125H13.4575L10.1163 16.0625C9.78 16.8825 10.0887 17.8488 10.8588 18.335L17.185 21.9588C17.38 22.07 17.4987 22.2775 17.4987 22.5013V29.3763C17.4987 29.7213 17.2187 30.0013 16.8737 30.0013C16.5287 30.0013 16.2487 29.7213 16.2487 29.3763V22.8638L10.2137 19.4063C8.90625 18.58 8.3925 16.9713 8.96875 15.565L12.0825 8.75125H8.41875C7.705 8.75125 7.0625 9.14875 6.7425 9.7875L4.93375 13.4063C4.77875 13.715 4.40375 13.8388 4.095 13.6863C3.78625 13.5313 3.66125 13.1563 3.815 12.8475L5.62375 9.22875C6.1575 8.1625 7.2275 7.50125 8.41875 7.50125H16.6988C17.7887 7.50125 18.8138 8.08125 19.3763 9.015L21.6812 12.8425C22.0187 13.4025 22.6337 13.7513 23.2875 13.7513H26.875C27.22 13.7513 27.5 14.0313 27.5 14.3763V14.375ZM8.36 20.9725C8.0425 20.8438 7.675 20.9988 7.5475 21.3213C7.26125 22.0375 6.5775 22.5 5.80625 22.5H1.875C1.53 22.5 1.25 22.78 1.25 23.125C1.25 23.47 1.53 23.75 1.875 23.75H5.8075C7.0925 23.75 8.23125 22.9788 8.70875 21.785C8.8375 21.465 8.68125 21.1013 8.36 20.9725ZM13.75 3.125C13.75 1.4025 15.1525 0 16.875 0C18.5975 0 20 1.4025 20 3.125C20 4.8475 18.5975 6.25 16.875 6.25C15.1525 6.25 13.75 4.8475 13.75 3.125ZM15 3.125C15 4.15875 15.8413 5 16.875 5C17.9088 5 18.75 4.15875 18.75 3.125C18.75 2.09125 17.9088 1.25 16.875 1.25C15.8413 1.25 15 2.09125 15 3.125Z" fill="#E1E1E1"/>
</g>
<defs>
<clipPath id="clip0_1_2718">
<rect width="30" height="30" fill="white"/>
</clipPath>
</defs>
</svg>
