<svg width="30" height="30" viewBox="0 0 30 30" fill="none" xmlns="http://www.w3.org/2000/svg">
<g clip-path="url(#clip0_1_2734)">
<path d="M24.1662 3.67498L25.7537 4.23623L26.2825 5.82248C26.3675 6.07748 26.6075 6.24998 26.8762 6.24998C27.145 6.24998 27.3837 6.07748 27.47 5.82248L27.9962 4.24373L29.575 3.71748C29.83 3.63248 30.0025 3.39373 30.0025 3.12498C30.0025 2.85623 29.83 2.61748 29.575 2.53248L27.9962 2.00623L27.47 0.427483C27.2987 -0.0825171 26.455 -0.0825171 26.2837 0.427483L25.76 1.99873L24.19 2.48998C23.9337 2.56998 23.7562 2.80498 23.7512 3.07498C23.7462 3.34498 23.9125 3.58623 24.1662 3.67498Z" fill="#E1E1E1"/>
<path d="M29.6075 23.795L26.285 22.4662L24.9562 19.1437C24.7687 18.6687 23.985 18.6687 23.7962 19.1437L22.4687 22.46L19.155 23.7137C18.9162 23.805 18.7562 24.0312 18.7512 24.2862C18.7462 24.5412 18.8975 24.775 19.1337 24.8737L22.465 26.2775L23.7962 29.6062C23.89 29.8437 24.1212 29.9987 24.3762 29.9987C24.6312 29.9987 24.8625 29.8425 24.9562 29.6062L26.285 26.2837L29.6075 24.955C29.845 24.86 30 24.63 30 24.375C30 24.12 29.845 23.89 29.6075 23.795ZM25.5712 25.2237C25.4125 25.2875 25.2862 25.4137 25.2237 25.5725L24.375 27.6925L23.5262 25.5725C23.465 25.4175 23.3437 25.2937 23.1887 25.2287L21.0575 24.33L23.1675 23.5312C23.3312 23.4687 23.4612 23.3412 23.5262 23.1787L24.375 21.0587L25.2237 23.1787C25.2875 23.3375 25.4125 23.4637 25.5712 23.5275L27.6912 24.3762L25.5712 25.2237Z" fill="#E1E1E1"/>
<path d="M23.6688 15.5737C24.4776 15.315 25.0001 14.5987 25.0001 13.75C25.0001 12.9012 24.4776 12.185 23.6538 11.9212L16.4451 9.80622L14.3476 2.60747C14.1001 1.79497 13.3901 1.26247 12.5413 1.25122C11.7088 1.28622 10.9701 1.75372 10.6926 2.57997L8.55631 9.80497L1.35631 11.9037C0.543809 12.1512 0.011309 12.8612 5.89955e-05 13.71C-0.011191 14.5587 0.502559 15.2812 1.32881 15.5587L8.55631 17.695L10.6763 24.92C10.9351 25.7287 11.6513 26.2512 12.5001 26.2512C13.3488 26.2512 14.0651 25.7287 14.3288 24.905L16.4451 17.6962L23.6538 15.5812L23.6688 15.5762V15.5737ZM23.2938 14.3812L15.7663 16.5912C15.5613 16.6512 15.4026 16.8112 15.3426 17.015L13.1351 24.5375C12.9976 24.9662 12.6151 25 12.5013 25C12.3876 25 12.0051 24.9662 11.8726 24.5525L9.66006 17.0162C9.60006 16.8125 9.44131 16.6525 9.23756 16.5925L1.70631 14.3662C1.27881 14.2237 1.25131 13.84 1.25256 13.7262C1.25381 13.6125 1.29256 13.23 1.71631 13.1012L9.23756 10.91C9.44256 10.8512 9.60256 10.6912 9.66256 10.4875L11.8888 2.95622C12.0288 2.53872 12.3976 2.50247 12.5201 2.50247H12.5276C12.6413 2.50372 13.0238 2.54247 13.1526 2.96622L15.3438 10.4862C15.4038 10.6912 15.5626 10.8512 15.7676 10.9112L23.2901 13.1187C23.7201 13.2562 23.7526 13.6387 23.7526 13.7525C23.7526 13.8662 23.7201 14.245 23.2963 14.3837L23.2938 14.3812Z" fill="#E1E1E1"/>
</g>
<defs>
<clipPath id="clip0_1_2734">
<rect width="30" height="30" fill="white"/>
</clipPath>
</defs>
</svg>
