<svg width="30" height="30" viewBox="0 0 30 30" fill="none" xmlns="http://www.w3.org/2000/svg">
<path d="M24.375 3.75H5.625C2.52375 3.75 0 6.27375 0 9.375V20.625C0 23.7262 2.52375 26.25 5.625 26.25H23.75C26.7 26.25 30 23.8438 30 20.625V9.375C30 6.27375 27.4762 3.75 24.375 3.75ZM28.75 18.75H25.625C25.28 18.75 25 18.4688 25 18.125V11.875C25 11.5312 25.28 11.25 25.625 11.25H28.75V18.75ZM15 18.75C12.9325 18.75 11.25 17.0675 11.25 15C11.25 12.9325 12.9325 11.25 15 11.25C17.0675 11.25 18.75 12.9325 18.75 15C18.75 17.0675 17.0675 18.75 15 18.75ZM1.25 11.25H4.375C4.72 11.25 5 11.5312 5 11.875V18.125C5 18.4688 4.72 18.75 4.375 18.75H1.25V11.25ZM1.25 20.625V20H4.375C5.40875 20 6.25 19.1587 6.25 18.125V11.875C6.25 10.8412 5.40875 10 4.375 10H1.25V9.375C1.25 6.9625 3.2125 5 5.625 5H14.375V10.0637C11.915 10.375 10 12.4575 10 15C10 17.5425 11.915 19.625 14.375 19.9363V25H5.625C3.2125 25 1.25 23.0375 1.25 20.625ZM23.75 25H15.625V19.9363C18.085 19.625 20 17.5425 20 15C20 12.4575 18.085 10.375 15.625 10.0637V5H24.375C26.7875 5 28.75 6.9625 28.75 9.375V10H25.625C24.5912 10 23.75 10.8412 23.75 11.875V18.125C23.75 19.1587 24.5912 20 25.625 20H28.75V20.625C28.75 23.0888 26.0625 25 23.75 25Z" fill="#E1E1E1"/>
</svg>
